<svg width="31" height="30" viewBox="0 0 31 30" fill="none" xmlns="http://www.w3.org/2000/svg">
<path d="M15.5004 20.8173C15.7661 20.8173 15.9887 20.7274 16.1682 20.5476C16.3477 20.3678 16.4374 20.1451 16.4374 19.8793C16.4374 19.6136 16.3476 19.391 16.1678 19.2115C15.988 19.032 15.7653 18.9423 15.4996 18.9423C15.2338 18.9423 15.0112 19.0322 14.8317 19.2119C14.6522 19.3917 14.5625 19.6145 14.5625 19.8802C14.5625 20.1459 14.6524 20.3685 14.8321 20.548C15.0119 20.7275 15.2346 20.8173 15.5004 20.8173ZM15.5004 15.9374C15.7661 15.9374 15.9887 15.8476 16.1682 15.6678C16.3477 15.488 16.4374 15.2653 16.4374 14.9996C16.4374 14.7338 16.3476 14.5112 16.1678 14.3317C15.988 14.1522 15.7653 14.0625 15.4996 14.0625C15.2338 14.0625 15.0112 14.1524 14.8317 14.3321C14.6522 14.5119 14.5625 14.7346 14.5625 15.0004C14.5625 15.2661 14.6524 15.4887 14.8321 15.6682C15.0119 15.8477 15.2346 15.9374 15.5004 15.9374ZM15.5004 11.0577C15.7661 11.0577 15.9887 10.9678 16.1682 10.788C16.3477 10.6082 16.4374 10.3855 16.4374 10.1198C16.4374 9.85402 16.3476 9.63141 16.1678 9.45191C15.988 9.27243 15.7653 9.18269 15.4996 9.18269C15.2338 9.18269 15.0112 9.27257 14.8317 9.45234C14.6522 9.63209 14.5625 9.85484 14.5625 10.1206C14.5625 10.3863 14.6524 10.6089 14.8321 10.7884C15.0119 10.9679 15.2346 11.0577 15.5004 11.0577ZM25.1153 24.3749H5.88463C5.26323 24.3749 4.73128 24.1537 4.28878 23.7112C3.84626 23.2687 3.625 22.7367 3.625 22.1153V18.0048C4.33654 17.8686 4.93109 17.5196 5.40866 16.9579C5.88622 16.3962 6.125 15.7436 6.125 15C6.125 14.2564 5.88622 13.6037 5.40866 13.042C4.93109 12.4803 4.33654 12.1314 3.625 11.9951V7.88463C3.625 7.26323 3.84626 6.73128 4.28878 6.28878C4.73128 5.84626 5.26323 5.625 5.88463 5.625H25.1153C25.7367 5.625 26.2687 5.84626 26.7112 6.28878C27.1537 6.73128 27.3749 7.26323 27.3749 7.88463V11.9951C26.6634 12.1314 26.0688 12.4803 25.5913 13.042C25.1137 13.6037 24.8749 14.2564 24.8749 15C24.8749 15.7436 25.1137 16.3962 25.5913 16.9579C26.0688 17.5196 26.6634 17.8686 27.3749 18.0048V22.1153C27.3749 22.7367 27.1537 23.2687 26.7112 23.7112C26.2687 24.1537 25.7367 24.3749 25.1153 24.3749ZM25.1153 22.5C25.2275 22.5 25.3197 22.4639 25.3918 22.3918C25.4639 22.3197 25.5 22.2275 25.5 22.1153V19.3125C24.7291 18.8541 24.1198 18.2448 23.6718 17.4843C23.2239 16.7239 23 15.8958 23 15C23 14.1041 23.2239 13.276 23.6718 12.5156C24.1198 11.7552 24.7291 11.1458 25.5 10.6875V7.88463C25.5 7.77244 25.4639 7.68028 25.3918 7.60816C25.3197 7.53603 25.2275 7.49997 25.1153 7.49997H5.88463C5.77244 7.49997 5.68028 7.53603 5.60816 7.60816C5.53603 7.68028 5.49997 7.77244 5.49997 7.88463V10.6875C6.2708 11.1458 6.88018 11.7552 7.32809 12.5156C7.77601 13.276 7.99997 14.1041 7.99997 15C7.99997 15.8958 7.77601 16.7239 7.32809 17.4843C6.88018 18.2448 6.2708 18.8541 5.49997 19.3125V22.1153C5.49997 22.2275 5.53603 22.3197 5.60816 22.3918C5.68028 22.4639 5.77244 22.5 5.88463 22.5H25.1153Z" fill="#FFEE01"/>
</svg>
