<svg width="31" height="30" viewBox="0 0 31 30" fill="none" xmlns="http://www.w3.org/2000/svg">
<path d="M6.1248 24.3749V9.49988L3.80762 4.4277L5.50449 3.62988L8.17762 9.43738H22.822L25.4951 3.62988L27.192 4.4277L24.8748 9.49988V24.3749H6.1248ZM12.9998 15.9374H17.9998C18.2654 15.9374 18.488 15.8475 18.6676 15.6677C18.8474 15.4879 18.9373 15.2652 18.9373 14.9996C18.9373 14.7337 18.8474 14.5111 18.6676 14.3318C18.488 14.1522 18.2654 14.0624 17.9998 14.0624H12.9998C12.7342 14.0624 12.5116 14.1523 12.332 14.3321C12.1522 14.5119 12.0623 14.7346 12.0623 15.0002C12.0623 15.266 12.1522 15.4886 12.332 15.668C12.5116 15.8476 12.7342 15.9374 12.9998 15.9374ZM7.9998 22.4999H22.9998V11.3124H7.9998V22.4999Z" fill="#FFD502"/>
</svg>
