<svg width="53" height="13" fill="none" xmlns="http://www.w3.org/2000/svg"><path d="m49.917.61 2.65 4.597-5.57 4.605L49.916.61Z" fill="#D9782D"/><path d="M13.288 9.504c.261-.18.433-.394.514-.65l.883-2.757c.082-.248.045-.462-.108-.633-.153-.171-.37-.257-.667-.257.288 0 .568-.086.83-.265.26-.171.432-.385.504-.642l.884-2.756c.08-.266.054-.488-.09-.668-.145-.18-.37-.265-.668-.265H3.886L.965 9.743h11.494c.288.026.568-.06.829-.24ZM5.4 2.417h7.572a.726.726 0 0 1 .478.325c.036.111.054.231.054.351 0 .068-.009.128-.018.188l-.018.06-.072.231c-.198.403-.622.694-1.136.745H4.796l.604-1.9Zm6.815 4.87c-.207.377-.613.642-1.109.702H3.624l.604-1.883H11.783c.279.06.486.248.55.488a1 1 0 0 1 .017.162c0 .026 0 .06-.009.086v.034l-.126.41ZM30.236.645 27.37 9.752h-2.065l1.154-3.655h-8.294l-1.154 3.655h-2.055L17.823.645h2.064l-1.154 3.672h8.294L28.181.645h2.055Zm.604 9.133h-2.073L31.652.679h2.073L30.84 9.778ZM48.158.662l-.856 2.705-2.01 6.368h-2.065l1.361-4.348-5.445 4.356-3.29-4.921-1.55 4.913h-2.065l2.218-7.01.649-2.071h.036l1.388 2.011 3.002 4.357 8.627-6.36ZM.333 12.217l.37-1.344h.414c.118 0 .208 0 .253.017a.24.24 0 0 1 .126.052c.045.034.072.068.081.12a.25.25 0 0 1 0 .162.396.396 0 0 1-.307.283.27.27 0 0 1 .199.11c.036.06.045.138.018.223-.018.052-.036.103-.081.154a.47.47 0 0 1-.135.129.619.619 0 0 1-.19.077c-.072.017-.18.025-.342.025H.333v-.008Zm.307-.18h.09c.09 0 .162 0 .207-.008a.399.399 0 0 0 .216-.103.23.23 0 0 0 .054-.103.232.232 0 0 0 0-.111c-.009-.034-.036-.06-.072-.077l-.08-.026c-.037 0-.073-.008-.127-.008H.757l-.117.436Zm.162-.599H.9a.75.75 0 0 0 .28-.043c.063-.025.099-.077.117-.145.018-.077.009-.129-.027-.154-.045-.026-.127-.043-.262-.043H.91l-.108.385Zm1.803.779.18-.65h.802l-.18.65h.262l.37-1.344h-.262l-.135.497h-.803l.135-.497h-.261l-.37 1.344h.262Zm3.218 0-.09-.351h-.649l-.28.35h-.279l1.172-1.403.406 1.404h-.28Zm-.595-.53h.46l-.081-.309c0-.017-.01-.043-.01-.068 0-.026-.008-.052-.008-.086-.018.026-.036.06-.054.086-.018.025-.036.051-.054.068l-.253.308Zm2.128-.07-.162.6H6.94l.37-1.344h.37c.107 0 .189.009.252.017.054.009.099.034.135.06a.201.201 0 0 1 .081.129.373.373 0 0 1-.009.17.461.461 0 0 1-.162.258.568.568 0 0 1-.307.11l.397.617H7.77l-.378-.6h-.036v-.016Zm.063-.17h.045a.738.738 0 0 0 .288-.043c.055-.026.09-.077.109-.146.018-.077.009-.128-.027-.154-.045-.034-.127-.043-.262-.043h-.045l-.108.386Zm2.57.77-.091-.351h-.649l-.289.35h-.279l1.172-1.403.406 1.404h-.27Zm-.587-.53h.46l-.081-.309c-.01-.017-.01-.043-.01-.068 0-.026-.008-.052-.008-.086a.395.395 0 0 0-.045.086.476.476 0 0 1-.054.068l-.262.308Zm2.867-.634.054-.188h-1.136l-.054.188h.433l-.316 1.164h.262l.315-1.164h.442Zm2.227 1.164.37-1.344h-.271l-.37 1.344h.27Zm1.316 0 .261-.933.055.077c.017.026.044.051.063.069l.829.838.388-1.395h-.244l-.252.933a.572.572 0 0 1-.063-.094c-.018-.026-.045-.051-.063-.077l-.812-.822-.387 1.404h.225Zm3.56-1.164.046-.188h-1.127l-.054.188h.433l-.316 1.164h.27l.316-1.164h.433Zm1.488 1.164.055-.197h-.65l.118-.436h.649l.054-.189h-.65l.09-.342h.65l.054-.188h-.92l-.37 1.343h.92v.009Zm1.407-.6-.162.6h-.253l.37-1.344h.37c.108 0 .189.009.243.017.054.009.099.034.135.06a.201.201 0 0 1 .081.129.374.374 0 0 1-.009.17.462.462 0 0 1-.162.258.567.567 0 0 1-.307.11l.397.617h-.298l-.378-.6h-.027v-.016Zm.063-.17h.045a.706.706 0 0 0 .288-.043c.055-.026.09-.077.109-.146.018-.077.009-.128-.027-.154-.046-.034-.127-.043-.262-.043h-.045l-.108.386Zm1.758.77.171-.633h.65l.053-.189h-.649l.09-.334h.65l.053-.188h-.91l-.37 1.344h.262Zm2.623 0-.09-.351h-.649l-.289.35h-.279l1.172-1.403.406 1.404h-.27Zm-.595-.53h.46l-.081-.309c-.01-.017-.01-.043-.01-.068 0-.026-.008-.052-.008-.086-.018.026-.036.06-.054.086a.82.82 0 0 0-.045.068l-.262.308Zm3.345-.711a1.061 1.061 0 0 0-.226-.103.896.896 0 0 0-.27-.034 1.25 1.25 0 0 0-.352.051.972.972 0 0 0-.315.154c-.1.069-.18.146-.253.231a.895.895 0 0 0-.144.274.603.603 0 0 0-.009.283.568.568 0 0 0 .117.23.567.567 0 0 0 .244.146c.099.035.207.052.333.052.1 0 .19-.009.28-.035a.95.95 0 0 0 .261-.094l.063-.248a1.124 1.124 0 0 1-.577.171c-.162 0-.288-.051-.37-.145-.08-.094-.107-.214-.062-.36a.663.663 0 0 1 .27-.368.825.825 0 0 1 .73-.102.719.719 0 0 1 .208.12l.072-.223Zm1.578 1.24.054-.196h-.65l.118-.436h.649l.054-.189h-.65l.09-.342h.65l.054-.188h-.91l-.37 1.343h.91v.009Zm2.64 0 .172-.632h.65l.053-.189h-.649l.09-.334h.65l.054-.188h-.91l-.37 1.344h.26Zm3.48-.667a.736.736 0 0 1-.143.274 1.062 1.062 0 0 1-.253.231 1.233 1.233 0 0 1-.667.205.987.987 0 0 1-.325-.05.582.582 0 0 1-.243-.155.51.51 0 0 1-.126-.222.566.566 0 0 1 .009-.274.866.866 0 0 1 .387-.505c.1-.069.208-.12.325-.154a1.25 1.25 0 0 1 .352-.052.99.99 0 0 1 .324.052c.1.034.171.085.243.154a.492.492 0 0 1 .127.231.534.534 0 0 1-.01.265Zm-.279 0a.49.49 0 0 0 .01-.197.284.284 0 0 0-.082-.162.417.417 0 0 0-.162-.111.574.574 0 0 0-.217-.035.784.784 0 0 0-.46.146.605.605 0 0 0-.17.162.487.487 0 0 0-.108.394c.008.06.044.12.08.163.045.051.1.085.163.111a.57.57 0 0 0 .216.034.785.785 0 0 0 .46-.146c.072-.05.126-.102.18-.162.036-.068.072-.128.09-.197Zm1.506.069-.163.599h-.252l.37-1.344h.37c.108 0 .189.009.252.017.054.009.099.034.135.06a.201.201 0 0 1 .081.129.374.374 0 0 1-.009.17.462.462 0 0 1-.162.258.567.567 0 0 1-.307.11l.397.617h-.297l-.38-.6h-.035v-.016Zm.063-.171h.045a.706.706 0 0 0 .288-.043c.055-.026.09-.077.109-.146.018-.077.009-.128-.027-.154-.045-.034-.127-.043-.262-.043h-.045l-.108.386Zm4.381.77h.244l-.01-1.404-.703.848-.027.034c-.054.06-.09.111-.117.145-.009-.043-.018-.085-.027-.12-.009-.034-.009-.05-.018-.068l-.243-.847-.776 1.403h.244l.36-.667c.018-.034.037-.069.046-.094.009-.035.027-.06.036-.086 0 .026.009.06.009.086.009.025.009.06.018.085l.225.736.622-.719c.027-.034.054-.06.072-.094.018-.034.036-.06.054-.094 0 .026-.009.06-.009.094-.009.052-.009.077-.009.086v.676h.01Zm3.011-.668a.87.87 0 0 1-.387.505c-.1.069-.208.12-.325.154a1.246 1.246 0 0 1-.351.052.987.987 0 0 1-.325-.052.583.583 0 0 1-.244-.154.51.51 0 0 1-.126-.222.568.568 0 0 1 .01-.274.868.868 0 0 1 .387-.505c.1-.069.207-.12.325-.154a1.25 1.25 0 0 1 .351-.052c.117 0 .226.018.316.052.099.034.18.085.243.154a.493.493 0 0 1 .126.231.444.444 0 0 1 0 .265Zm-.28 0a.492.492 0 0 0 .01-.197.352.352 0 0 0-.081-.162.417.417 0 0 0-.163-.111.8.8 0 0 0-.856.274.491.491 0 0 0-.108.394c.018.06.045.119.08.162.046.051.1.085.163.111a.571.571 0 0 0 .217.034c.08 0 .162-.017.243-.034a.786.786 0 0 0 .397-.274.671.671 0 0 0 .099-.197Zm1.335.668.252-.933.054.077c.019.026.037.051.064.069l.829.838.388-1.395h-.244l-.252.933-.072-.094c-.018-.026-.045-.051-.063-.077l-.812-.822-.387 1.404h.243Zm3.191 0 .054-.197h-.649l.118-.436h.649l.054-.189h-.65l.09-.342h.65l.054-.188h-.91l-.37 1.343h.91v.009Zm1.614 0 .171-.616.767-.728h-.27l-.479.454-.054.051c-.018.017-.036.043-.054.06-.009-.026-.009-.043-.018-.06a.14.14 0 0 1-.018-.043l-.216-.453h-.28l.352.727-.171.616h.27v-.008Z" fill="#6D6E71"/></svg>