<svg width="236" height="101" viewBox="0 0 236 101" fill="none" xmlns="http://www.w3.org/2000/svg">
<g clip-path="url(#clip0_572_1080)">
<path d="M89.5797 66.52C98.4697 65.2 107.42 64.24 116.41 63.73C125.4 63.22 134.41 63.13 143.41 63.41C147.91 63.55 152.41 63.77 156.91 64.12C161.41 64.47 165.91 64.94 170.36 65.52C179.306 66.6712 188.186 68.2969 196.96 70.39C197.217 70.4517 197.439 70.6126 197.577 70.8374C197.716 71.0622 197.76 71.3328 197.7 71.59C197.64 71.8423 197.485 72.0615 197.266 72.2014C197.048 72.3414 196.784 72.391 196.53 72.34C187.74 70.65 178.92 69.14 170.04 67.98C161.16 66.82 152.27 65.93 143.33 65.39C134.39 64.85 125.42 64.75 116.46 64.96C107.5 65.17 98.5397 65.76 89.6097 66.75C89.5758 66.7503 89.5429 66.7383 89.5172 66.7163C89.4914 66.6942 89.4746 66.6635 89.4697 66.63C89.4737 66.6022 89.4866 66.5765 89.5065 66.5567C89.5263 66.5369 89.552 66.524 89.5797 66.52Z" fill="#FFD502"/>
<path d="M144.72 13.74L154.96 12.47L144.88 11.27C146.03 9.8 147.17 8.33 148.32 6.87L143.95 10.3C143.53 6.87 143.11 3.43 142.68 0C142.26 3.48 141.85 7 141.43 10.44L136.73 6.77L140.3 11.31L130.47 12.52L140.47 13.72L136.88 18.39L141.53 14.73C141.936 17.99 142.34 21.2433 142.74 24.49C143.12 21.28 143.51 18.07 143.89 14.86L148.23 18.24L144.72 13.74Z" fill="#FFD502"/>
<path d="M223.6 34.86L233.47 33.64L223.78 32.48L227.09 28.24L222.88 31.55C222.467 28.2167 222.06 24.9067 221.66 21.62C221.25 24.97 220.85 28.33 220.45 31.68L215.88 28.14L219.32 32.52L209.88 33.69L219.54 34.84C218.37 36.33 217.21 37.84 216.05 39.32L220.53 35.79C220.917 38.93 221.303 42.07 221.69 45.21L222.8 35.92C224.2 37 225.593 38.0867 226.98 39.18L223.6 34.86Z" fill="#FFD502"/>
<path d="M112.66 22.21L120.1 21.29L112.8 20.42L115.29 17.22L112.12 19.71L111.19 12.23L110.29 19.82L106.88 17.15L109.47 20.45L102.34 21.33L109.62 22.2L106.99 25.57L110.36 22.91C110.66 25.28 110.95 27.64 111.24 30.01L112.08 23.01L115.23 25.46C114.36 24.39 113.51 23.29 112.66 22.21Z" fill="#FFD502"/>
<path d="M63.4701 79.4601L73.8801 78.1801L63.7101 76.9601L67.1801 72.5101L62.7701 75.9801L61.4801 65.5601L60.2201 76.1201L55.4101 72.3901L59.0201 76.9801L49.0801 78.2101L59.2201 79.4201L55.5601 84.1101L60.2601 80.4101C60.6701 83.7001 61.0701 87.0001 61.4801 90.2901L62.6401 80.5401L67.0301 83.9601L63.4701 79.4601Z" fill="#FFD502"/>
<path d="M130.72 29.65L135.72 29.03L130.84 28.45C131.39 27.74 131.95 27.03 132.5 26.31L130.39 27.98C130.18 26.31 129.97 24.65 129.77 22.98C129.57 24.67 129.36 26.36 129.16 28.05L126.88 26.27L128.61 28.47L123.84 29.06L128.71 29.64L126.88 31.89L129.14 30.12C129.33 31.7 129.53 33.28 129.72 34.86C129.91 33.3 130.09 31.74 130.28 30.18C130.98 30.73 131.68 31.28 132.39 31.82L130.72 29.65Z" fill="#FFD502"/>
<path d="M10.65 36.2299L18.31 35.2899L10.79 34.39L13.36 31.09L10.09 33.66C9.77 31.0866 9.45335 28.5166 9.14001 25.95C8.83001 28.56 8.51001 31.16 8.20001 33.77L4.67999 31.02L7.35001 34.41L0 35.3199L7.5 36.22L4.79001 39.69L8.27002 36.96L9.17001 44.2599L10.04 37.05L13.28 39.58C12.4 38.47 11.52 37.3899 10.65 36.2299Z" fill="#FFD502"/>
<path d="M46.0601 86.66L51.0601 86.04L46.1301 85.45L47.8801 83.29L45.7401 84.97L45.1101 79.91C44.9101 81.62 44.7101 83.33 44.5001 85.04L42.1901 83.24C42.7701 83.98 43.3601 84.72 43.9401 85.47L39.1201 86.06L44.0401 86.65L42.2601 88.93L44.5501 87.13C44.7401 88.73 44.9401 90.33 45.1401 91.93C45.3301 90.35 45.5201 88.77 45.7001 87.2L47.8301 88.86L46.0601 86.66Z" fill="#FFD502"/>
<path d="M42.76 36.2401L50.46 35.29L42.88 34.39L45.46 31.08L42.18 33.66L41.18 25.92L40.25 33.7701L36.71 31.01L39.39 34.42L32 35.33L39.54 36.23C38.63 37.4 37.72 38.56 36.82 39.73L40.31 36.97C40.6233 39.4234 40.9267 41.8734 41.22 44.32L42.09 37.07L45.35 39.62C44.53 38.48 43.64 37.3901 42.76 36.2401Z" fill="#FFD502"/>
<path d="M28.3297 26.79L34.0097 26.08L28.4397 25.42C29.0697 24.61 29.6997 23.79 30.3397 22.98L27.9197 24.8801C27.6797 22.9801 27.4497 21.08 27.2097 19.17L26.5197 24.9601L23.9097 22.9601L25.9097 25.48L20.4697 26.15L26.0197 26.82L24.0197 29.39L26.5897 27.39C26.8197 29.19 27.0397 31 27.2597 32.8C27.4697 31.02 27.6897 29.2401 27.8997 27.4601L30.2997 29.34L28.3297 26.79Z" fill="#FFD502"/>
<path d="M228.21 82.2L234.95 81.37L228.34 80.58L230.59 77.69L227.72 79.94C227.45 77.68 227.17 75.43 226.89 73.17C226.61 75.4567 226.337 77.7434 226.07 80.03L222.97 77.62L225.32 80.62L218.88 81.39L225.47 82.1801L223.09 85.23L226.15 82.83C226.41 84.97 226.673 87.11 226.94 89.25C227.193 87.1367 227.447 85.0234 227.7 82.91L230.55 85.14L228.21 82.2Z" fill="#FFD502"/>
<path d="M211.53 91.21L220.03 90.16L211.68 89.16L214.53 85.51L210.88 88.39L209.88 79.84C209.53 82.73 209.19 85.62 208.88 88.51L204.98 85.51L207.98 89.28L199.82 90.28L208.14 91.28L205.14 95.13L209 92.13C209.334 94.7966 209.667 97.5 210 100.24C210.32 97.57 210.63 94.91 211 92.24L214.6 95.05L211.53 91.21Z" fill="#FFD502"/>
<path d="M194.14 82.3901L199.23 81.7601L194.23 81.1601L195.93 78.9701L193.76 80.6801L193.13 75.5601C192.93 77.2901 192.72 79.0201 192.51 80.7501L190.17 78.9201C190.76 79.6801 191.36 80.4301 191.95 81.1801L187.07 81.7801L192.07 82.3801L190.27 84.69L192.58 82.8701L193.18 87.72L193.75 82.9301L195.9 84.6101L194.14 82.3901Z" fill="#FFD502"/>
<path d="M226.88 66.02C226.45 66.08 225.47 66.22 225.16 67.02C225.069 67.3259 225.065 67.6513 225.15 67.959C225.235 68.2667 225.405 68.5443 225.64 68.76C225.887 68.9619 226.175 69.1084 226.484 69.1895C226.793 69.2705 227.115 69.2844 227.43 69.23C227.646 69.2534 227.865 69.2331 228.073 69.1703C228.281 69.1075 228.474 69.0035 228.641 68.8645C228.808 68.7255 228.945 68.5543 229.045 68.3611C229.144 68.1679 229.204 67.9567 229.22 67.74C229.259 67.5315 229.253 67.3173 229.205 67.1108C229.157 66.9043 229.067 66.71 228.94 66.54C228.671 66.2823 228.34 66.0989 227.979 66.0078C227.618 65.9166 227.239 65.9208 226.88 66.02Z" fill="black"/>
<path d="M235.16 44.91C234.487 44.2735 233.597 43.9161 232.67 43.91C232.181 43.8614 231.692 44.0088 231.31 44.32C231.073 44.6999 230.92 45.1261 230.86 45.57C230.755 45.9387 230.668 46.3125 230.6 46.69C230.48 47.41 228.12 59.33 227.33 62.6C227.225 62.8841 227.191 63.1901 227.233 63.4903C227.275 63.7905 227.391 64.0756 227.57 64.32C227.878 64.5971 228.277 64.7503 228.69 64.75C228.918 64.757 229.145 64.709 229.35 64.61C229.537 64.5087 229.699 64.3659 229.822 64.1925C229.945 64.0192 230.026 63.8199 230.06 63.61C230.89 60.42 232.06 57.27 233.14 54.22C233.83 52.31 234.55 50.35 235.14 48.39V48.27C235.59 47.16 236.01 45.85 235.16 44.91Z" fill="black"/>
<path d="M179.1 42.39C179.317 42.497 179.557 42.5518 179.8 42.55C180.168 42.5549 180.53 42.4617 180.85 42.28C181.47 41.91 181.59 41.28 181.73 40.57C181.95 39.46 182.16 38.4 181.37 37.85C180.971 37.625 180.515 37.5239 180.059 37.5595C179.603 37.5951 179.168 37.7659 178.81 38.05C178.544 38.3037 178.345 38.6188 178.23 38.9676C178.115 39.3163 178.087 39.6881 178.15 40.05C178.15 40.73 178.15 41.97 179.1 42.39Z" fill="black"/>
<path d="M225.61 55.77C225.618 55.156 225.498 54.547 225.257 53.9822C225.015 53.4174 224.659 52.9091 224.21 52.49C222.52 51.08 219.45 50.96 217.21 52.22C216.449 52.6694 215.801 53.2869 215.316 54.0253C214.831 54.7637 214.521 55.6034 214.41 56.48C214.37 56.6715 214.339 56.8652 214.32 57.06C214.249 58.4063 214.599 59.7412 215.32 60.88C215.39 61.01 215.48 61.14 215.56 61.27C214.275 62.34 212.747 63.0782 211.11 63.42C210.64 63.51 210.41 63.49 210.24 63.42C209.62 63.01 210.12 61.34 210.94 58.58C211.07 58.15 211.2 57.69 211.35 57.2C212.89 51.91 213.04 50.43 212.12 49.66C211.492 49.2392 210.727 49.0713 209.98 49.19C208.47 49.26 206.98 50.09 203.43 54.13C203.53 53.77 204.98 48.43 203.93 47.94C203.633 47.8597 203.328 47.8094 203.02 47.79C202.581 47.7017 202.129 47.7017 201.69 47.79C201.15 47.98 200.98 48.67 200.84 49.25C200.506 50.5667 200.252 51.9025 200.08 53.25C199.97 53.25 199.88 53.32 199.77 53.34C199.114 53.4857 198.441 53.5429 197.77 53.51C197.77 49.8 196.1 46.8 193.87 46.05C193.248 45.807 192.582 45.6949 191.915 45.7207C191.247 45.7465 190.592 45.9097 189.99 46.2C189.658 46.3962 189.358 46.6425 189.1 46.93C187.949 47.0714 186.856 47.5163 185.934 48.2192C185.011 48.9221 184.292 49.8577 183.85 50.93C183.183 52.4149 182.93 54.0531 183.12 55.67C182.492 56.226 181.824 56.7341 181.12 57.19C179.57 58.19 179.19 58.05 179.12 58.01C178.88 57.89 178.66 57.4 179.06 54.76C179.265 53.4606 179.535 52.1723 179.87 50.9C179.97 50.5 180.08 50.07 180.19 49.61C181.25 45.12 180.95 44.49 180.49 44.16C180.084 43.962 179.631 43.8796 179.181 43.922C178.732 43.9643 178.302 44.1297 177.94 44.4C177.504 44.7497 177.212 45.2483 177.12 45.8C176.57 48.39 176.22 50.69 176.01 52.21C175.153 53.1158 174.189 53.9149 173.14 54.59H173.09C172.09 55.2 170.27 56.35 169.43 55.84C168.76 55.43 168.91 54.09 168.97 53.52C169.41 49.52 169.79 46.39 170.1 43.98L171.63 44.08C172.63 44.15 173.46 44.2 174.06 44.21C175.17 44.21 175.67 44.1 176 43.66C176.215 43.3812 176.327 43.0363 176.316 42.6843C176.305 42.3323 176.172 41.995 175.94 41.73C175.49 41.33 174.77 41.46 174 41.6C173.41 41.7 172.77 41.79 172.1 41.86C171.43 41.93 170.92 41.96 170.36 41.99C170.89 38.15 171.17 36.77 171.19 36.68C171.32 36.07 171.55 34.62 170.82 34.27C170.334 34.1529 169.827 34.1529 169.34 34.27C168.999 34.2859 168.662 34.3533 168.34 34.47C167.58 34.83 167.49 35.82 167.46 36.16C167.38 37.16 167.08 39.62 166.77 42.02C166.04 42.02 165.44 42.02 165.09 41.96C164.74 41.9 164.09 41.86 163.83 42.25C163.774 42.3386 163.74 42.4394 163.732 42.5439C163.723 42.6484 163.74 42.7534 163.78 42.85C163.95 43.36 164.91 43.57 166.56 43.71C166.32 45.52 165.96 48.11 165.96 48.11C165.691 49.7394 165.508 51.3816 165.41 53.03L164.15 53.76C161.81 55.05 161.28 55.08 161.07 54.97C160.55 54.67 160.75 53.43 160.93 52.31C161.98 45.87 162.46 42.49 161.33 42C160.881 41.8932 160.416 41.8762 159.96 41.95C159.573 41.9579 159.194 42.0646 158.86 42.26C158.66 42.4122 158.51 42.6213 158.43 42.86C157.556 42.0969 156.479 41.6036 155.33 41.44C154.304 41.3524 153.27 41.4924 152.304 41.8503C151.338 42.2081 150.462 42.7748 149.74 43.51C148.666 44.564 147.847 45.8504 147.348 47.2702C146.849 48.6901 146.682 50.2055 146.86 51.7L146.95 52.32C144.29 54.7 143.29 55 142.95 54.79C142.85 54.73 142.7 54.5 142.61 53.21C142.529 51.9616 142.58 50.708 142.76 49.47C145.19 46.734 147.071 43.5563 148.3 40.11C149.93 35.35 149.02 33.11 148.3 32.23C147.874 31.6308 147.268 31.1826 146.57 30.95C145.92 30.8231 145.251 30.8267 144.602 30.9606C143.953 31.0945 143.337 31.356 142.79 31.73C141.26 32.62 139.71 34.73 139.22 49.44C139.22 50.01 139.22 50.68 139.22 51.37C138.581 52.0838 137.893 52.7521 137.16 53.37C136.93 53.56 136.37 54.01 136.06 53.89C135.75 53.77 135.69 52.71 135.7 52.37C135.7 51.37 135.83 49.89 135.95 48.3C136.203 45.9356 136.299 43.5571 136.24 41.18C136.228 41.0159 136.183 40.8558 136.108 40.7097C136.032 40.5635 135.927 40.4343 135.8 40.33C135.608 40.2103 135.395 40.1301 135.171 40.094C134.948 40.058 134.72 40.0668 134.5 40.12C133.877 40.2108 133.314 40.5408 132.93 41.04C132.827 41.435 132.747 41.8357 132.69 42.24C132.43 43.95 132.69 44.29 132.69 46.58C132.69 47.35 132.64 47.52 132.54 50.06C132.54 50.23 132.54 50.37 132.54 50.46C131.872 51.2915 131.092 52.0252 130.22 52.64C129.63 53.05 127.85 54.3 127.14 53.85C126.76 53.62 126.81 52.63 126.89 50.68C126.89 49.81 126.97 49.58 127.04 48.33C127.11 47.08 127.04 47.11 127.12 46.13C127.12 44.84 127.2 43.52 127.3 42.21C127.3 41.57 127.41 40.5 126.74 40.21C126.429 40.1287 126.103 40.1235 125.79 40.1949C125.477 40.2663 125.185 40.4121 124.94 40.62C124.457 41.0073 124.133 41.5591 124.03 42.17C123.709 44.1339 123.545 46.1202 123.54 48.11V49.22C122.854 50.1276 122.065 50.953 121.19 51.68C120.88 52 118.82 54.02 117.69 53.43C117.02 53.07 116.96 51.94 116.95 51.19C116.87 47.19 116.85 44.02 116.85 41.58L118.37 41.49C121.37 41.31 122.22 41.25 122.64 40.49C122.819 40.1878 122.887 39.8328 122.832 39.4861C122.777 39.1393 122.603 38.8225 122.34 38.59C121.84 38.25 121.15 38.47 120.41 38.7C119.83 38.88 119.22 39.04 118.56 39.2C117.9 39.36 117.4 39.45 116.86 39.55C116.86 35.6 117 34.2 117 34.18C117.06 33.56 117.09 32.09 116.33 31.83C116.07 31.74 115.67 31.83 114.88 32.07C114.557 32.1268 114.243 32.2313 113.95 32.38C113.702 32.6009 113.512 32.8802 113.398 33.1927C113.285 33.5052 113.251 33.8411 113.3 34.17C113.3 35.24 113.36 37.68 113.36 40.07C112.63 40.16 112.03 40.21 111.68 40.22C111.33 40.23 110.68 40.22 110.48 40.67C110.431 40.7624 110.406 40.8654 110.406 40.97C110.406 41.0746 110.431 41.1776 110.48 41.27C110.66 41.65 111.26 41.79 112.27 41.8C112.58 41.8 112.94 41.8 113.33 41.8C113.33 42.36 113.25 47.04 113.27 48.41C113.27 49.06 113.27 50.02 113.38 51.19L112.23 52.07C110.07 53.66 109.55 53.75 109.34 53.66C108.78 53.43 108.82 52.17 108.86 51.05C109.08 44.52 109.13 41.11 107.95 40.77C107.493 40.7154 107.03 40.7562 106.59 40.89C106.225 40.9557 105.882 41.1102 105.59 41.34C105.41 41.5157 105.288 41.7426 105.24 41.99C104.29 41.3594 103.18 41.0125 102.04 40.99C101.004 41.0275 99.9899 41.2946 99.0699 41.7719C98.1498 42.2492 97.3473 42.9248 96.7202 43.75C95.7924 44.9341 95.1478 46.3148 94.8358 47.7863C94.5239 49.2579 94.5527 50.7813 94.9202 52.24C94.9789 52.5115 95.0558 52.7788 95.1502 53.04C93.3502 55.3 92.7002 55.57 92.4702 55.48C92.2402 55.39 92.2602 54.55 92.2602 52.31V52C92.2602 48.18 92.2602 46.89 91.4402 46.56C91.1244 46.4693 90.7863 46.4978 90.4902 46.64C90.039 46.7984 89.5735 46.9122 89.1002 46.98C88.4056 47.0871 87.7009 47.1139 87.0002 47.06C87.7702 45.9 88.7702 44 88.1802 42.78C88.111 42.6372 88.0161 42.5084 87.9002 42.4C87.0502 41.6 85.0202 41.8 83.9002 42.81C83.4898 43.1762 83.1916 43.6513 83.0402 44.18C82.8485 44.8373 82.8288 45.5328 82.9829 46.1999C83.137 46.867 83.4597 47.4834 83.9202 47.99C84.1157 48.2 84.3336 48.3878 84.5702 48.55C83.4902 50.11 82.4902 51.58 81.5702 52.96C81.4502 50.59 81.3002 47.75 81.1402 44.38C81.1402 44.03 81.0702 42.95 80.4202 42.73C80.2005 42.6729 79.9699 42.6729 79.7502 42.73C79.1566 42.7907 78.6038 43.06 78.1902 43.49C78.0164 43.7267 77.9314 44.017 77.9502 44.31C76.8877 43.6091 75.632 43.2594 74.3602 43.31C73.3328 43.4206 72.3435 43.7613 71.4658 44.3066C70.5881 44.8519 69.8445 45.5879 69.2902 46.46C68.4437 47.7394 67.8955 49.1926 67.6861 50.7123C67.4766 52.232 67.6113 53.7794 68.0802 55.24C68.1402 55.42 68.2002 55.59 68.2702 55.77C67.5432 56.7953 66.6226 57.6684 65.5602 58.34C65.1602 58.58 64.9402 58.65 64.7502 58.6C64.0302 58.43 63.9102 56.7 63.7002 53.83C63.7002 53.38 63.6302 52.9 63.5902 52.39C63.1602 46.9 62.7902 45.46 61.6602 45.06C60.93 44.8912 60.163 45.0017 59.5102 45.37C58.1302 45.97 57.0202 47.28 55.1702 52.29C55.1702 52.02 55.1002 51.75 55.0702 51.48C54.7402 48.68 54.3902 46.36 53.4502 46.33C53.1485 46.3617 52.8505 46.422 52.5602 46.51C52.1205 46.5855 51.6995 46.7451 51.3202 46.98C50.9402 47.3 50.8502 47.86 51.0402 48.64C51.3302 49.81 51.5002 51.03 51.6702 52.21L51.7302 52.62C51.6512 52.6889 51.5677 52.7523 51.4802 52.81C50.934 53.1706 50.3421 53.4564 49.7202 53.66C48.3902 50.2 45.8102 47.97 43.4602 48.05C42.7965 48.0449 42.1389 48.1763 41.5282 48.4361C40.9175 48.6958 40.3668 49.0784 39.9102 49.56C39.6642 49.8599 39.4684 50.1976 39.3302 50.56C38.308 51.1029 37.4482 51.9073 36.8386 52.8912C36.2289 53.875 35.8913 55.003 35.8602 56.16C35.8148 56.9678 35.8753 57.778 36.0402 58.57C34.7741 61.1365 32.6521 63.1807 30.0402 64.35C27.7668 65.4896 25.1517 65.7462 22.7002 65.07C17.5002 63.38 15.4402 56.07 16.8402 50.53C17.642 47.7421 19.3219 45.2872 21.6302 43.53C22.3002 43.02 24.6302 41.41 26.5402 41.97C27.6015 42.3189 28.4844 43.069 29.0002 44.06C29.1621 44.3517 29.2625 44.6734 29.2952 45.0053C29.3278 45.3373 29.2921 45.6724 29.1902 45.99C29.121 46.1587 29.0878 46.34 29.0927 46.5222C29.0976 46.7044 29.1405 46.8836 29.2187 47.0484C29.2968 47.2131 29.4084 47.3597 29.5464 47.4788C29.6844 47.5979 29.8458 47.6869 30.0202 47.74C30.2183 47.8297 30.4321 47.879 30.6494 47.8852C30.8667 47.8914 31.0831 47.8544 31.286 47.7762C31.4888 47.698 31.6741 47.5803 31.8311 47.4299C31.988 47.2795 32.1135 47.0994 32.2002 46.9C33.0602 44.82 33.0202 43.12 32.0802 41.85C31.6222 41.2496 31.0342 40.7607 30.3602 40.42C28.5651 39.5816 26.5413 39.3669 24.6102 39.81C22.3326 40.2446 20.2127 41.2804 18.4702 42.81C14.4702 46.21 11.0502 52.93 13.2302 59.65C14.1302 62.45 16.4102 67.33 21.4902 68.6C22.2457 68.7908 23.0211 68.8915 23.8002 68.9C25.4292 68.9009 27.0439 68.5956 28.5602 68C32.1113 66.5344 34.9837 63.7904 36.6102 60.31C37.1599 61.6543 38.0786 62.8156 39.2602 63.66C39.5746 63.8759 39.9095 64.0601 40.2602 64.21C40.9409 64.4854 41.6661 64.6344 42.4002 64.65C43.9103 64.6839 45.4009 64.3034 46.7102 63.55C49.1002 62.09 50.4402 58.85 50.0202 55.35C50.2027 55.2303 50.397 55.1297 50.6002 55.05C51.0797 54.8495 51.5414 54.6086 51.9802 54.33C51.9802 54.39 51.9802 54.44 51.9802 54.49C52.2102 55.73 52.4802 56.98 52.7402 58.18C53.0002 59.38 53.2102 60.37 53.4202 61.47C53.4402 61.6638 53.5059 61.8501 53.6119 62.0135C53.718 62.177 53.8613 62.3129 54.0302 62.41C54.1427 62.4494 54.261 62.4697 54.3802 62.47C54.9084 62.4165 55.4108 62.2155 55.8302 61.89C56.8802 61.1 56.5602 59.64 56.0302 57.21C55.9002 56.65 55.7702 56.03 55.6402 55.36C56.3702 53.84 57.1402 52.36 57.9802 50.86C58.4102 50.09 59.1402 48.86 59.4402 48.86C59.7402 48.86 59.7502 49.96 59.8202 51.18C59.8902 52.4 60.0002 54.18 60.3302 56.36C60.7002 58.85 61.1402 60.3 62.3902 60.85C62.7064 60.9852 63.0463 61.0566 63.3902 61.06C63.6484 61.0583 63.9059 61.0349 64.1602 60.99C66.1602 60.67 67.8202 59.05 69.0202 57.44C69.5915 58.3938 70.4589 59.1347 71.4902 59.55C71.9667 59.7131 72.4666 59.7976 72.9702 59.8C73.9394 59.8065 74.8972 59.591 75.7702 59.17C77.0432 58.453 78.0631 57.3597 78.6902 56.04C78.6902 56.41 78.7602 56.81 78.7902 57.2C75.7902 62.09 74.1302 65.35 73.5402 66.56C72.9502 67.77 71.7102 70.31 72.8302 72.56C73.2364 73.3722 73.8506 74.0623 74.6102 74.56C75.2851 75.012 76.078 75.2554 76.8902 75.26C78.1893 75.2688 79.45 74.8191 80.4502 73.99C80.9027 73.5807 81.2727 73.0885 81.5402 72.54C82.2281 71.1246 82.5085 69.5457 82.3502 67.98C82.3002 66.4 81.8302 58.09 81.6502 55.6C82.9202 53.42 84.2402 51.28 85.6502 49.14C86.8167 49.5394 88.079 49.5639 89.2602 49.21C89.2602 50.86 89.2602 52.52 89.2602 54.27C89.2602 55.36 89.2602 56.72 90.1802 57.27C90.5988 57.455 91.0526 57.5471 91.5102 57.54C91.5602 57.54 92.5802 57.4 92.7902 57.35C93.9302 57.07 95.6502 54.88 95.7302 54.79L95.8502 54.64C96.3526 55.5619 97.1378 56.2981 98.0902 56.74C98.6735 56.9681 99.2939 57.0867 99.9202 57.09C100.762 57.0999 101.597 56.9471 102.38 56.64C103.697 56.0279 104.791 55.0214 105.51 53.76C105.51 53.76 105.57 53.66 105.61 53.61C105.74 55.23 105.87 56.23 106.71 56.61C106.952 56.7225 107.214 56.7838 107.48 56.79C108.001 56.7691 108.515 56.661 109 56.47C110.37 56 111.12 55.22 112.62 53.66L113.62 52.75C113.72 53.3863 113.877 54.0122 114.09 54.62C114.243 55.1041 114.549 55.5255 114.962 55.8211C115.375 56.1168 115.873 56.2708 116.38 56.26C116.988 56.2441 117.589 56.1292 118.16 55.92C119.616 55.3488 120.898 54.4078 121.88 53.19C122.43 52.61 122.95 52.01 123.47 51.39C123.47 53.02 123.59 54.6 124.18 55.32C124.322 55.4822 124.483 55.6266 124.66 55.75C125.232 55.9535 125.833 56.0616 126.44 56.07C126.623 56.0852 126.807 56.0852 126.99 56.07C128.99 55.89 130.34 54.59 131.75 53.2C131.99 52.96 132.22 52.71 132.45 52.46C132.45 54.86 132.61 55.59 133.26 55.99C133.6 56.1862 133.988 56.2832 134.38 56.27C134.58 56.2863 134.781 56.2863 134.98 56.27C136.006 56.1293 136.956 55.6508 137.68 54.91C138.24 54.42 138.8 53.91 139.35 53.31C139.55 54.72 140.02 55.98 141.09 56.47C141.405 56.6116 141.745 56.6865 142.09 56.69H142.29C144.29 56.69 146.15 55.17 147.36 53.82C147.725 54.9692 148.478 55.9556 149.49 56.61C150.287 57.0366 151.177 57.2598 152.08 57.26C152.65 57.2688 153.218 57.2015 153.77 57.06C155.158 56.6217 156.374 55.7618 157.25 54.6L157.36 54.47C157.29 56.09 157.29 57.1 158.08 57.62C158.398 57.8261 158.771 57.9308 159.15 57.92C159.561 57.9158 159.97 57.8655 160.37 57.77C161.79 57.48 162.64 56.77 164.37 55.46L165.47 54.58C165.476 55.2535 165.556 55.9244 165.71 56.58C165.828 57.166 166.15 57.6908 166.62 58.06C167.101 58.3838 167.67 58.5514 168.25 58.54C168.7 58.5366 169.149 58.4897 169.59 58.4C171.107 58.0498 172.508 57.3164 173.66 56.27C174.4 55.68 175.11 55.05 175.8 54.39C175.8 54.77 175.72 55.13 175.69 55.45C175.45 57.67 175.34 58.68 176.16 59.28C176.699 59.6138 177.327 59.7775 177.96 59.75H178.41C179.17 59.6942 179.909 59.4687 180.57 59.09C181.61 58.5154 182.574 57.8133 183.44 57C183.652 57.7734 183.99 58.5066 184.44 59.17C185.028 59.966 185.798 60.61 186.685 61.0483C187.572 61.4867 188.551 61.7067 189.54 61.69C190.568 61.7165 191.591 61.5257 192.54 61.13C196.02 59.69 197.27 55.99 197.54 55.22L198.2 55.15C198.72 55.117 199.238 55.0536 199.75 54.96C199.75 55.02 199.75 55.07 199.75 55.13C199.53 56.36 199.34 57.62 199.16 58.84C198.98 60.06 198.83 61.06 198.64 62.15C198.589 62.3398 198.584 62.5394 198.628 62.7312C198.671 62.923 198.762 63.1012 198.89 63.25C199.143 63.4571 199.464 63.5608 199.79 63.54C200.128 63.5442 200.465 63.5005 200.79 63.41C202.06 63.04 202.27 61.56 202.63 59.1C202.71 58.54 202.81 57.91 202.92 57.23C204.15 56.06 205.42 54.92 206.72 53.85C207.42 53.28 208.59 52.32 208.84 52.47C209.09 52.62 208.73 53.61 208.37 54.78C208.01 55.95 207.47 57.65 207.01 59.78C206.48 62.24 206.38 63.78 207.36 64.72C207.821 65.1281 208.391 65.3923 209 65.48C209.3 65.5385 209.605 65.572 209.91 65.58C212.42 65.58 215.01 63.91 216.57 62.66L217.37 63.72C218.459 64.9888 219.362 66.4064 220.05 67.93C220.35 69 220.304 70.1375 219.918 71.1795C219.532 72.2215 218.825 73.1143 217.9 73.73C216.758 74.4427 215.406 74.7427 214.07 74.58C212.683 74.5538 211.358 74.0036 210.36 73.04C209.99 72.5894 209.693 72.0832 209.48 71.54C209.987 71.5884 210.498 71.5478 210.99 71.42C211.649 71.2406 212.231 70.8499 212.646 70.308C213.062 69.7661 213.288 69.1029 213.29 68.42C213.239 68.0748 213.11 67.7457 212.912 67.458C212.715 67.1703 212.454 66.9316 212.15 66.76C211.824 66.6159 211.472 66.5415 211.115 66.5415C210.759 66.5415 210.406 66.6159 210.08 66.76C209.31 67.07 208.3 67.9 207.89 70.14C207.466 70.0867 207.053 69.9616 206.67 69.77C206.48 69.68 206.32 69.58 206.15 69.49C205.78 69.26 205.45 69.06 205.15 69.21C205.088 69.238 205.032 69.2794 204.987 69.3312C204.942 69.3831 204.909 69.4441 204.89 69.51C204.73 70.11 206.12 70.81 206.4 70.94C206.643 71.0297 206.894 71.0934 207.15 71.13C207.414 71.1707 207.672 71.2411 207.92 71.34C207.92 71.52 208.04 71.77 208.15 72.07C208.485 72.8893 208.993 73.6262 209.64 74.23C210.56 75.1214 211.692 75.7619 212.93 76.09C213.624 76.2853 214.34 76.3895 215.06 76.4C216.266 76.4181 217.463 76.1936 218.58 75.74C220.3 75.0142 221.714 73.7133 222.58 72.06C222.987 71.2598 223.229 70.3857 223.29 69.49C223.43 67.04 222.07 65.28 220.75 63.58C219.43 61.88 218.17 60.24 218.09 57.86C218.006 56.9657 218.263 56.0727 218.81 55.36C219.81 54.11 222.06 53.48 223.03 54.16C223.701 54.5759 224.196 55.2235 224.42 55.98C224.466 56.1203 224.561 56.2391 224.688 56.3145C224.815 56.3899 224.965 56.4167 225.11 56.39C225.258 56.3724 225.393 56.2977 225.486 56.1819C225.58 56.066 225.624 55.9182 225.61 55.77ZM41.2002 51.97C41.2803 51.6514 41.433 51.3556 41.6464 51.1058C41.8597 50.856 42.128 50.6589 42.4302 50.53C42.8498 50.3228 43.3122 50.2166 43.7802 50.22C44.1287 50.2115 44.4735 50.2942 44.7802 50.46C46.0889 51.4419 47.0011 52.8616 47.3502 54.46C47.1102 54.85 44.2902 54.98 42.7702 54.05C42.1102 53.64 41.0502 52.86 41.2002 51.97ZM44.8202 61.17C44.0171 61.5659 43.1021 61.6727 42.2295 61.4723C41.3568 61.2719 40.5801 60.7766 40.0302 60.07C39.0815 58.9571 38.5791 57.5319 38.6202 56.07C38.6051 54.8999 38.8836 53.7447 39.4302 52.71C40.079 54.1737 41.2553 55.3394 42.7248 55.975C44.1943 56.6106 45.8492 56.6695 47.3602 56.14C47.4526 57.1325 47.2633 58.1308 46.8141 59.0206C46.3648 59.9103 45.6737 60.6553 44.8202 61.17ZM78.2102 47.6C78.3002 49.21 78.4302 51.32 78.6102 53.81C78.0623 54.8301 77.2043 55.6495 76.1602 56.15C75.5732 56.4558 74.9066 56.5744 74.2502 56.49C72.3902 56.14 71.6102 53.62 71.4102 52.86C70.921 50.8661 71.1845 48.7618 72.1502 46.95C72.3758 46.532 72.6863 46.1658 73.0617 45.8748C73.4371 45.5837 73.8692 45.3744 74.3302 45.26C74.9983 45.1561 75.6807 45.1912 76.3346 45.3633C76.9885 45.5354 77.5998 45.8407 78.1302 46.26C78.1502 46.68 78.1802 47.11 78.2102 47.6ZM157.94 49.68C157.8 50.57 157.68 51.47 157.59 52.38C156.851 53.2703 155.845 53.8981 154.72 54.17C154.089 54.3708 153.411 54.3708 152.78 54.17C151.01 53.48 150.72 50.91 150.68 50.17C150.585 48.1715 151.233 46.2084 152.5 44.66C152.81 44.2929 153.192 43.9927 153.622 43.7778C154.051 43.5629 154.52 43.4378 155 43.41H155.16C156.415 43.5188 157.583 44.0973 158.43 45.03C158.36 46.5884 158.196 48.1412 157.94 49.68ZM142.79 47.22C142.79 46.54 142.85 45.62 142.9 44.54C143.39 34.44 144.9 33.42 145.32 33.36C145.661 33.3135 146.008 33.3655 146.32 33.51C146.692 33.7179 146.974 34.0565 147.11 34.46C148.45 37.74 144.81 44.07 144.77 44.13C144.169 45.1967 143.508 46.2284 142.79 47.22ZM99.5002 44.39C99.7594 43.9849 100.099 43.6374 100.498 43.3691C100.897 43.1007 101.347 42.9172 101.82 42.83C102.466 42.7796 103.116 42.857 103.732 43.0577C104.348 43.2585 104.918 43.5787 105.41 44C105.552 45.5792 105.588 47.166 105.52 48.75C105.52 49.64 105.52 50.56 105.52 51.47C104.903 52.4413 103.992 53.1908 102.92 53.61C102.315 53.8815 101.64 53.955 100.99 53.82C99.1602 53.37 98.5402 50.82 98.4002 50.09C98.051 48.1194 98.4428 46.0892 99.5002 44.39ZM84.6702 43.97C84.8177 43.7738 85.0077 43.6134 85.2258 43.5009C85.444 43.3883 85.6848 43.3265 85.9302 43.32C86.0406 43.3207 86.1496 43.3446 86.2502 43.39C86.3598 43.4655 86.4521 43.5633 86.5211 43.6771C86.59 43.7909 86.634 43.918 86.6502 44.05C86.7285 44.537 86.7021 45.035 86.5728 45.5109C86.4435 45.9868 86.2141 46.4297 85.9002 46.81C85.3914 46.5185 84.9833 46.079 84.7302 45.55C84.5861 45.3119 84.5049 45.041 84.4944 44.7628C84.4839 44.4846 84.5444 44.2084 84.6702 43.96V43.97ZM79.8802 68.03C80.0418 69.0894 79.8815 70.1728 79.4202 71.14C79.2636 71.4951 79.0267 71.8091 78.7283 72.0572C78.4299 72.3053 78.0779 72.4809 77.7002 72.57C77.32 72.5651 76.9452 72.4797 76.6005 72.3194C76.2558 72.1591 75.9489 71.9276 75.7002 71.64C74.2402 70.02 75.8902 66.11 79.0302 60.32C79.063 60.2513 79.0998 60.1845 79.1402 60.12C79.2402 61.26 79.3602 62.44 79.4902 63.66C79.6402 65.24 79.8202 66.87 79.8802 68.03ZM189.47 58.5C188.814 58.3368 188.203 58.0271 187.683 57.5941C187.164 57.1611 186.749 56.6162 186.47 56C185.47 53.87 186.26 51 188.47 48.95C188.593 49.8355 188.889 50.6883 189.34 51.46C189.942 52.3865 190.73 53.1771 191.655 53.7815C192.58 54.3859 193.62 54.7907 194.71 54.97C193.7 57.47 191.44 58.86 189.45 58.5H189.47ZM195.34 53.33C194.97 53.61 192.28 52.73 191.17 51.33C190.7 50.73 189.98 49.62 190.43 48.85C190.619 48.5786 190.868 48.3544 191.158 48.1948C191.447 48.0352 191.77 47.9446 192.1 47.93H192.44C192.792 47.9238 193.141 47.9898 193.466 48.124C193.791 48.2582 194.085 48.4576 194.33 48.71C195.198 50.0839 195.549 51.7214 195.32 53.33H195.34ZM211.43 69.71C211.11 69.9554 210.74 70.1281 210.346 70.2162C209.953 70.3042 209.544 70.3056 209.15 70.22C209.134 69.9242 209.179 69.6282 209.28 69.3498C209.381 69.0714 209.538 68.8164 209.74 68.6C209.915 68.39 210.138 68.2263 210.391 68.1234C210.644 68.0205 210.919 67.9815 211.19 68.01C211.484 68.0809 211.739 68.264 211.9 68.52C212.08 69 211.57 69.55 211.41 69.71H211.43Z" fill="black"/>
</g>
<defs>
<clipPath id="clip0_572_1080">
<rect width="235.65" height="100.12" fill="white"/>
</clipPath>
</defs>
</svg>
