<svg width="30" height="30" fill="none" xmlns="http://www.w3.org/2000/svg"><path d="M15 20.817c.266 0 .489-.09.668-.27.18-.18.27-.402.27-.668a.906.906 0 0 0-.27-.668.908.908 0 0 0-.668-.269.906.906 0 0 0-.668.27.908.908 0 0 0-.27.668c0 .266.09.489.27.668.18.18.403.27.668.27Zm0-4.88c.266 0 .489-.09.668-.27.18-.179.27-.402.27-.667a.906.906 0 0 0-.27-.668.908.908 0 0 0-.668-.27.906.906 0 0 0-.668.27.908.908 0 0 0-.27.668c0 .266.09.489.27.668.18.18.403.27.668.27Zm0-4.88c.266 0 .489-.09.668-.269.18-.18.27-.402.27-.668a.906.906 0 0 0-.27-.668.908.908 0 0 0-.668-.27.906.906 0 0 0-.668.27.908.908 0 0 0-.27.669c0 .265.09.488.27.667.18.18.403.27.668.27Zm9.615 13.318H5.385a2.176 2.176 0 0 1-1.596-.664 2.176 2.176 0 0 1-.664-1.596v-4.11a3.028 3.028 0 0 0 1.784-1.047A2.931 2.931 0 0 0 5.625 15c0-.744-.239-1.396-.716-1.958a3.029 3.029 0 0 0-1.784-1.047v-4.11c0-.622.221-1.154.664-1.596a2.176 2.176 0 0 1 1.596-.664h19.23c.622 0 1.154.221 1.596.664.443.442.664.974.664 1.596v4.11a3.03 3.03 0 0 0-1.784 1.047A2.932 2.932 0 0 0 24.375 15c0 .744.239 1.396.716 1.958.478.562 1.072.91 1.784 1.047v4.11c0 .622-.221 1.154-.664 1.596a2.176 2.176 0 0 1-1.596.664Zm0-1.875a.374.374 0 0 0 .277-.108.374.374 0 0 0 .108-.277v-2.802a5.124 5.124 0 0 1-1.828-1.829A4.808 4.808 0 0 1 22.5 15c0-.896.224-1.724.672-2.484A5.124 5.124 0 0 1 25 10.687V7.886a.374.374 0 0 0-.108-.277.374.374 0 0 0-.277-.108H5.385a.374.374 0 0 0-.277.108.374.374 0 0 0-.108.277v2.803a5.124 5.124 0 0 1 1.828 1.828c.448.76.672 1.588.672 2.484 0 .896-.224 1.724-.672 2.484A5.124 5.124 0 0 1 5 19.312v2.803c0 .113.036.205.108.277a.374.374 0 0 0 .277.108h19.23Z" fill="#fff"/></svg>