<svg width="16" height="20" fill="none" xmlns="http://www.w3.org/2000/svg"><path d="M5 11h2V8.25h2V11h2V6.25l-3-2-3 2V11Zm3 6.35c2.033-1.867 3.542-3.563 4.525-5.088C13.508 10.738 14 9.383 14 8.2c0-1.817-.58-3.304-1.738-4.462C11.104 2.579 9.683 2 8 2c-1.683 0-3.104.58-4.263 1.737C2.58 4.896 2 6.383 2 8.2c0 1.183.492 2.538 1.475 4.063.983 1.524 2.492 3.22 4.525 5.087ZM8 20c-2.683-2.283-4.688-4.404-6.013-6.363C.662 11.68 0 9.867 0 8.2c0-2.5.804-4.492 2.413-5.975C4.02.742 5.883 0 8 0c2.117 0 3.98.742 5.588 2.225S16 5.7 16 8.2c0 1.667-.662 3.48-1.988 5.438C12.688 15.595 10.683 17.716 8 20Z" fill="#fff"/></svg>