<svg width="24" height="24" fill="none" xmlns="http://www.w3.org/2000/svg"><rect x=".25" y=".25" width="23.5" height="23.5" rx="11.75" fill="#fff"/><rect x=".25" y=".25" width="23.5" height="23.5" rx="11.75" stroke="#FFD502" stroke-width=".5"/><path d="M11.946 4.128c3.073.003 5.709 2.157 6.3 5.087.272 1.357.082 2.656-.45 3.917-.54 1.271-1.316 2.392-2.203 3.438a22.852 22.852 0 0 1-3.266 3.147c-.264.208-.388.211-.647.004-1.664-1.329-3.157-2.821-4.364-4.583-.7-1.022-1.276-2.108-1.534-3.33-.424-2.013.042-3.82 1.343-5.397 1.016-1.232 2.34-1.953 3.917-2.21.299-.05.601-.075.904-.073Z" fill="#474747"/><path d="M15.661 13.875c-1.866 2.129-5.375 2.184-7.326 0 .257 0 .5-.008.74.003.135.006.182-.021.18-.171-.008-.969-.006-1.937 0-2.905 0-.134-.021-.182-.17-.18-.646.01-1.293 0-1.938.007-.111 0-.147-.02-.146-.141.005-2.564 1.993-4.74 4.541-4.959A5.004 5.004 0 0 1 16.9 9.493c.067.332.1.669.101 1.007 0 .1-.022.13-.127.13-.66-.006-1.322 0-1.983-.006-.116 0-.145.026-.144.143.005.99.005 1.978 0 2.968 0 .117.027.148.144.143.253-.01.506-.003.771-.003Z" fill="#FEFEFE"/><path d="M9.625 10.625v-3.03c0-.337.133-.47.472-.47h3.81c.33 0 .466.134.466.46l.003 6.135c0 .118-.024.157-.15.154a29.61 29.61 0 0 0-1.217 0c-.107.002-.14-.021-.138-.134.006-.556.003-1.113.003-1.67 0-.308-.14-.447-.448-.447h-.859c-.298 0-.442.142-.442.437 0 .562-.003 1.125 0 1.686 0 .102-.026.129-.128.128a44.142 44.142 0 0 0-1.25 0c-.102 0-.128-.026-.127-.128.008-1.038.005-2.08.005-3.121Z" fill="#474747"/><path d="M10.125 8.23c0-.078-.003-.157 0-.234a.375.375 0 0 1 .63-.266.37.37 0 0 1 .116.255c.008.177.008.354 0 .53a.371.371 0 0 1-.634.253.375.375 0 0 1-.111-.258c-.003-.093 0-.187 0-.28ZM11.625 8.252c0-.088-.005-.177 0-.265a.375.375 0 0 1 .63-.258.37.37 0 0 1 .113.249c.01.182.01.364 0 .545a.37.37 0 0 1-.628.25.375.375 0 0 1-.116-.256c-.002-.088.001-.176.001-.264ZM13.875 8.255c0 .088.005.177 0 .265a.373.373 0 0 1-.745 0 5.977 5.977 0 0 1 0-.546.373.373 0 0 1 .744 0c.005.093.001.187.001.28ZM10.875 10.25c0 .093.006.188 0 .28a.372.372 0 0 1-.743-.002 5.629 5.629 0 0 1 0-.546.373.373 0 0 1 .744.003c.006.088 0 .177 0 .265h-.001ZM12.375 10.25c0 .094.006.188 0 .28a.372.372 0 0 1-.743-.004 5.575 5.575 0 0 1 0-.546.373.373 0 0 1 .744.005c.006.088 0 .177 0 .265h-.001ZM13.873 10.25c0 .094.006.188 0 .28a.372.372 0 0 1-.743-.004 5.77 5.77 0 0 1 0-.546.372.372 0 0 1 .744.005c.005.088 0 .177 0 .265h-.001Z" fill="#FEFEFE"/></svg>