<svg width="60" height="42" fill="none" xmlns="http://www.w3.org/2000/svg"><g clip-path="url(#a)" fill-rule="evenodd" clip-rule="evenodd"><path d="M50.783 18.932c-.38-1.097-1.407-1.89-2.614-1.89h-.023c-.787 0-1.493.333-1.993.867a2.738 2.738 0 0 0-1.994-.867h-.023c-.689 0-1.32.259-1.803.684v-.213a.409.409 0 0 0-.408-.385h-1.85a.416.416 0 0 0-.408.42v10.248c0 .23.184.42.408.42h1.85a.409.409 0 0 0 .402-.362v-7.359c0-.023 0-.052.006-.075a.68.68 0 0 1 .637-.632h.34a.682.682 0 0 1 .39.155c.16.132.253.333.253.552v7.048l.005.27c0 .23.184.42.408.42h1.85a.415.415 0 0 0 .408-.397V20.49c0-.241.109-.46.304-.592a.7.7 0 0 1 .34-.115h.338c.402.035.644.345.644.707V22.213h.005v5.583c0 .23.184.42.408.42h1.85c.224 0 .408-.19.408-.42v-7.864c0-.535-.057-.764-.138-1ZM38.243 17.151h-1.057V15.4a.374.374 0 0 0-.374-.38c-.023 0-.046.007-.069.007-1.177.327-.936 1.987-3.085 2.125h-.206a.415.415 0 0 0-.414.42v1.884c0 .23.184.42.408.42h1.114v8.001c0 .23.184.414.403.414h1.832a.406.406 0 0 0 .402-.413v-8.003h1.04c.224 0 .408-.19.408-.42V17.57a.4.4 0 0 0-.402-.419Z" fill="#24B9EC"/><path d="M31.578 17.151h-1.85a.416.416 0 0 0-.407.42v1.01h-.006v1.236c.006.028.011.057.011.086V21.47a.439.439 0 0 1-.43.437h-.776a.438.438 0 0 1-.437-.443v-2.884h-.005v-1.01c0-.23-.184-.42-.408-.42h-1.85a.416.416 0 0 0-.408.42v4.28c0 1.625 1.138 2.78 2.735 2.78h1.172s.028 0 .063.006a.44.44 0 0 1 .006.873c-.012 0-.018.005-.03.005l-.528.012h-2.183a.416.416 0 0 0-.408.42v1.884c0 .23.184.419.408.419h3.028c1.597 0 2.734-1.16 2.734-2.78v-7.9a.444.444 0 0 0-.43-.419ZM13.656 20.61v1.166a.438.438 0 0 1-.436.442h-1.172v-2.332h1.177c.242 0 .437.195.437.442v.281h-.006Zm.167-3.459H9.773a.405.405 0 0 0-.402.408v10.26c0 .23.166.414.373.42h1.884a.412.412 0 0 0 .408-.42l.006-2.867h1.77c1.481 0 2.516-1.045 2.516-2.568v-2.66c.011-1.522-1.023-2.573-2.505-2.573ZM21.344 25.044v.293c0 .023-.006.046-.006.07l-.017.063a.428.428 0 0 1-.414.281h-.77a.425.425 0 0 1-.436-.414V23.73c0-.23.195-.414.436-.414h.77c.242 0 .437.184.437.414v1.315Zm-.293-7.881h-2.568a.404.404 0 0 0-.414.39v1.775c0 .23.196.414.437.414h2.447a.424.424 0 0 1 .368.396v.242c-.023.212-.172.367-.356.385h-1.212c-1.615 0-2.758 1.091-2.758 2.625v2.194c0 1.523.988 2.608 2.585 2.608H22.941c.603 0 1.091-.465 1.091-1.04v-7.157c-.005-1.735-.884-2.832-2.981-2.832Z" fill="#23346B"/></g><defs><clipPath id="a"><path fill="#fff" transform="translate(.226 .531)" d="M0 0h59.624v41.172H0z"/></clipPath></defs></svg>