<svg width="374" height="416" viewBox="0 0 374 416" fill="none" xmlns="http://www.w3.org/2000/svg">
<path d="M56.6557 169.611L51.6145 173.34L51.8289 179.606L46.7255 175.964L40.8306 178.107L42.7168 172.125L38.8604 167.181L45.1288 167.127L48.6404 161.931L50.6294 167.878L56.6557 169.611Z" fill="#FEC700"/>
<path d="M50.1272 170.902L65.482 179.217L48.6855 174.444L50.1272 170.902Z" fill="#FEC700"/>
<path d="M94.7397 77.835L89.404 78.2114L86.6898 82.8199L84.683 77.8626L79.46 76.7046L83.5556 73.2641L83.0418 67.9393L87.58 70.7702L92.4859 68.6379L91.1954 73.8283L94.7397 77.835Z" fill="#FEC700"/>
<path d="M89.4499 75.7758L96.6965 88.7898L86.791 77.665L89.4499 75.7758Z" fill="#FEC700"/>
<path d="M18.9973 119.043L30.6478 127.358L18.1693 120.348C17.7968 120.139 17.6643 119.667 17.8738 119.295C18.0833 118.922 18.5546 118.79 18.9271 119C18.9508 119.012 18.9755 119.028 18.9973 119.043Z" fill="#FEC700"/>
<path d="M116.818 181.166L136.294 194.45L115.991 182.47C115.623 182.253 115.501 181.779 115.718 181.412C115.935 181.044 116.409 180.922 116.776 181.139C116.789 181.147 116.805 181.158 116.818 181.166Z" fill="#FEC700"/>
<path d="M34.9745 129.191L39.7766 133.156L34.1455 130.496C33.7572 130.312 33.5902 129.848 33.774 129.459C33.9577 129.071 34.4221 128.904 34.8105 129.089C34.8697 129.115 34.9261 129.151 34.9745 129.191Z" fill="#FEC700"/>
<path d="M99.21 169.984L104.013 173.95L98.382 171.289C97.9927 171.105 97.8267 170.641 98.0104 170.252C98.1942 169.863 98.6586 169.697 99.0469 169.881C99.1052 169.909 99.1616 169.945 99.21 169.984Z" fill="#FEC700"/>
<path d="M107.526 175.265L112.328 179.23L106.697 176.569C106.309 176.385 106.142 175.921 106.326 175.533C106.51 175.143 106.975 174.977 107.363 175.161C107.421 175.19 107.477 175.226 107.526 175.265Z" fill="#FEC700"/>
<path d="M43.7784 134.78L96.1863 168.979L42.9494 136.084C42.5868 135.86 42.4741 135.384 42.6984 135.021C42.9227 134.658 43.399 134.546 43.7616 134.77C43.7665 134.773 43.7735 134.778 43.7784 134.78Z" fill="#FEC700"/>
<path d="M101.901 204.891L125.408 206.691L101.834 206.435C101.407 206.43 101.065 206.08 101.07 205.653C101.074 205.227 101.424 204.885 101.851 204.89C101.867 204.889 101.886 204.89 101.901 204.891Z" fill="#FEC700"/>
<path d="M81.0639 203.982L87.2048 205.023L80.9967 205.526C80.5679 205.56 80.1934 205.241 80.1578 204.812C80.1233 204.384 80.4424 204.008 80.8712 203.974C80.9355 203.968 81.0027 203.972 81.0639 203.982Z" fill="#FEC700"/>
<path d="M90.9038 204.411L97.0437 205.454L90.8356 205.956C90.4068 205.99 90.0323 205.671 89.9967 205.242C89.9621 204.813 90.2813 204.439 90.7101 204.403C90.7763 204.397 90.8425 204.401 90.9038 204.411Z" fill="#FEC700"/>
<path d="M15.4601 201.118L77.9406 204.619L15.3919 202.662C14.9651 202.649 14.6301 202.293 14.644 201.866C14.6578 201.439 15.0135 201.104 15.4404 201.118C15.4463 201.117 15.4552 201.118 15.4601 201.118Z" fill="#FEC700"/>
<path d="M90.6859 33.5155L96.5185 46.5868L89.3105 34.22C89.0951 33.8505 89.2206 33.3772 89.5891 33.1627C89.9577 32.9473 90.432 33.0718 90.6474 33.4414C90.6622 33.4651 90.675 33.4908 90.6859 33.5155Z" fill="#FEC700"/>
<path d="M143.553 136.634L153.615 157.955L142.179 137.338C141.972 136.966 142.107 136.494 142.48 136.288C142.854 136.08 143.324 136.216 143.532 136.589C143.538 136.603 143.546 136.619 143.553 136.634Z" fill="#FEC700"/>
<path d="M99.3211 50.3583L101.453 56.2107L97.9467 51.0628C97.7046 50.7081 97.7965 50.2229 98.1513 49.9809C98.507 49.7388 98.9911 49.8307 99.2332 50.1864C99.2698 50.2397 99.3004 50.3 99.3211 50.3583Z" fill="#FEC700"/>
<path d="M134.036 118.073L136.168 123.925L132.661 118.778C132.419 118.422 132.51 117.938 132.865 117.696C133.22 117.454 133.705 117.546 133.947 117.902C133.985 117.954 134.014 118.014 134.036 118.073Z" fill="#FEC700"/>
<path d="M138.53 126.838L140.66 132.689L137.155 127.542C136.913 127.188 137.005 126.703 137.359 126.46C137.715 126.218 138.199 126.31 138.441 126.666C138.479 126.719 138.508 126.78 138.53 126.838Z" fill="#FEC700"/>
<path d="M104.079 59.6394L131.939 115.675L102.704 60.3439C102.504 59.9675 102.649 59.5001 103.026 59.3005C103.404 59.1009 103.871 59.2452 104.071 59.6226C104.074 59.6266 104.078 59.6345 104.079 59.6394Z" fill="#FEC700"/>
<path d="M61.7677 107.441L65.7497 112.23L60.7115 108.568C60.3637 108.315 60.2866 107.828 60.5396 107.48C60.7925 107.133 61.2796 107.056 61.6274 107.308C61.6788 107.347 61.7272 107.393 61.7677 107.441Z" fill="#FEC700"/>
<path d="M69.3816 114.575L140.598 183.454L68.3165 115.694C68.0052 115.403 67.9894 114.913 68.2809 114.602C68.5734 114.291 69.0615 114.275 69.3727 114.567C69.3747 114.569 69.3797 114.573 69.3816 114.575Z" fill="#FEC700"/>
<path d="M99.416 90.9913L102.119 96.6026L98.1177 91.8292C97.841 91.5001 97.8845 91.009 98.2145 90.7324C98.5435 90.4567 99.0346 90.4992 99.3113 90.8292C99.3528 90.8786 99.3884 90.9349 99.416 90.9913Z" fill="#FEC700"/>
<path d="M105.067 99.7397L123.679 128.824L103.785 100.601C103.539 100.253 103.622 99.7703 103.971 99.5243C104.32 99.2783 104.802 99.3613 105.048 99.71C105.054 99.7189 105.062 99.7308 105.067 99.7397Z" fill="#FEC700"/>
<path d="M161.591 72.2691L175.205 143.665L160.076 72.5744C159.987 72.1575 160.254 71.7464 160.672 71.6575C161.088 71.5686 161.499 71.8353 161.587 72.2523C161.588 72.2582 161.589 72.2661 161.591 72.2691Z" fill="#FEC700"/>
<path d="M125.611 59.6957L127.267 65.6993L124.183 60.2875C123.971 59.914 124.101 59.4388 124.473 59.2254C124.847 59.0129 125.322 59.1433 125.536 59.5159C125.569 59.5732 125.594 59.6354 125.611 59.6957Z" fill="#FEC700"/>
<path d="M129.616 69.3364L160.834 149.847L128.181 69.9075C128.019 69.5123 128.208 69.0617 128.603 68.8997C128.999 68.7386 129.449 68.9273 129.611 69.3226C129.612 69.3265 129.615 69.3334 129.616 69.3364Z" fill="#FEC700"/>
<path d="M69.032 179.713L74.5237 182.651L68.4776 181.156C68.0607 181.052 67.8057 180.63 67.9085 180.213C68.0113 179.796 68.4332 179.541 68.8511 179.644C68.9154 179.66 68.9776 179.685 69.032 179.713Z" fill="#FEC700"/>
<path d="M78.7528 183.448L110.934 195.97L78.2252 184.901C77.821 184.763 77.6047 184.325 77.741 183.92C77.8784 183.516 78.3171 183.3 78.7212 183.436C78.7301 183.44 78.7429 183.444 78.7528 183.448Z" fill="#FEC700"/>
<path d="M55.0887 111.262C55.0887 112.808 53.8348 114.062 52.2885 114.062C50.7421 114.062 49.4893 112.808 49.4893 111.262C49.4893 109.715 50.7421 108.462 52.2885 108.462C53.8348 108.462 55.0887 109.715 55.0887 111.262Z" fill="#FEC700"/>
<path d="M151.04 72.4223C151.04 73.9686 149.786 75.2235 148.241 75.2235C146.694 75.2235 145.44 73.9696 145.44 72.4223C145.44 70.8759 146.694 69.6221 148.241 69.6221C149.786 69.6221 151.04 70.8759 151.04 72.4223Z" fill="#FEC700"/>
<path d="M51.709 97.7528C51.709 98.7705 50.8849 99.5946 49.8682 99.5946C48.8504 99.5946 48.0264 98.7705 48.0264 97.7528C48.0264 96.736 48.8504 95.912 49.8682 95.912C50.8849 95.912 51.709 96.736 51.709 97.7528Z" fill="#FEC700"/>
<path d="M142.503 62.8447C142.503 63.8615 141.679 64.6855 140.662 64.6855C139.645 64.6855 138.82 63.8615 138.82 62.8447C138.82 61.828 139.645 61.0029 140.662 61.0029C141.679 61.0039 142.503 61.828 142.503 62.8447Z" fill="#FEC700"/>
<path d="M39.6651 155.922C39.759 156.935 39.014 157.832 38.0022 157.926C36.9894 158.02 36.0912 157.275 35.9994 156.262C35.9045 155.25 36.6495 154.353 37.6623 154.258C38.6741 154.165 39.5713 154.91 39.6651 155.922Z" fill="#FEC700"/>
<path d="M94.248 108.004C94.248 109.021 93.424 109.845 92.4062 109.845C91.3895 109.845 90.5654 109.021 90.5654 108.004C90.5654 106.987 91.3895 106.162 92.4062 106.162C93.424 106.163 94.248 106.987 94.248 108.004Z" fill="#FEC700"/>
<path d="M98.9272 118.239L118.045 140.253L97.7879 119.283C97.4915 118.976 97.5004 118.487 97.8077 118.19C98.115 117.894 98.6041 117.903 98.8995 118.209C98.9074 118.218 98.9183 118.23 98.9272 118.239Z" fill="#FEC700"/>
<path d="M306.348 177.509L311.13 181.564L310.501 187.804L315.835 184.508L321.575 187.035L320.089 180.943L324.266 176.266L318.013 175.795L314.856 170.378L312.476 176.181L306.348 177.509Z" fill="#FEC700"/>
<path d="M313.979 182.86L296.902 186.508L312.776 179.231L313.979 182.86Z" fill="#FEC700"/>
<path d="M274.092 79.3507L279.427 79.7272L282.142 84.3356L284.148 79.3784L289.371 78.2213L285.276 74.7799L285.79 69.4551L281.25 72.2849L276.346 70.1537L277.636 75.3441L274.092 79.3507Z" fill="#FEC700"/>
<path d="M282.039 79.1817L272.135 90.3055L279.381 77.2915L282.039 79.1817Z" fill="#FEC700"/>
<path d="M358.288 126.405L345.407 132.646L357.54 125.054C357.903 124.827 358.38 124.937 358.606 125.299C358.833 125.661 358.723 126.138 358.36 126.365C358.338 126.38 358.313 126.393 358.288 126.405Z" fill="#FEC700"/>
<path d="M256.882 182.485L235.889 193.212L256.134 181.133C256.5 180.914 256.974 181.034 257.194 181.401C257.412 181.767 257.293 182.242 256.926 182.46C256.912 182.469 256.896 182.477 256.882 182.485Z" fill="#FEC700"/>
<path d="M341.727 135.565L335.944 137.881L340.979 134.213C341.326 133.96 341.813 134.036 342.066 134.384C342.319 134.732 342.243 135.219 341.896 135.472C341.843 135.509 341.784 135.542 341.727 135.565Z" fill="#FEC700"/>
<path d="M275.136 172.392L269.354 174.707L274.388 171.04C274.736 170.787 275.222 170.863 275.476 171.211C275.729 171.559 275.653 172.046 275.305 172.299C275.252 172.336 275.193 172.368 275.136 172.392Z" fill="#FEC700"/>
<path d="M266.515 177.158L260.733 179.473L265.767 175.806C266.114 175.553 266.601 175.63 266.855 175.977C267.108 176.325 267.031 176.812 266.684 177.065C266.632 177.103 266.572 177.134 266.515 177.158Z" fill="#FEC700"/>
<path d="M332.599 140.612L277.466 170.219L331.852 139.26C332.222 139.049 332.695 139.178 332.905 139.549C333.116 139.92 332.986 140.391 332.616 140.602C332.612 140.605 332.604 140.61 332.599 140.612Z" fill="#FEC700"/>
<path d="M279.519 35.7358L272.312 48.1017L278.144 35.0313C278.318 34.641 278.776 34.4661 279.166 34.64C279.556 34.8139 279.731 35.2714 279.557 35.6617C279.545 35.6874 279.532 35.7131 279.519 35.7358Z" fill="#FEC700"/>
<path d="M226.652 138.855L215.216 159.47L225.276 138.151C225.458 137.764 225.92 137.599 226.306 137.781C226.692 137.964 226.857 138.424 226.676 138.811C226.668 138.824 226.659 138.84 226.652 138.855Z" fill="#FEC700"/>
<path d="M270.884 52.5787L267.377 57.7266L269.508 51.8742C269.655 51.4701 270.102 51.2616 270.506 51.4088C270.91 51.556 271.119 52.0026 270.972 52.4068C270.949 52.468 270.918 52.5273 270.884 52.5787Z" fill="#FEC700"/>
<path d="M236.169 120.293L232.662 125.441L234.793 119.588C234.941 119.184 235.387 118.976 235.791 119.123C236.195 119.27 236.403 119.717 236.257 120.121C236.235 120.182 236.202 120.243 236.169 120.293Z" fill="#FEC700"/>
<path d="M231.675 129.059L228.169 134.206L230.299 128.355C230.446 127.951 230.893 127.742 231.297 127.889C231.701 128.036 231.909 128.483 231.763 128.887C231.741 128.948 231.708 129.008 231.675 129.059Z" fill="#FEC700"/>
<path d="M266.126 61.8597L236.892 117.191L264.751 61.1543C264.94 60.7729 265.405 60.6167 265.786 60.8064C266.169 60.9962 266.324 61.4596 266.134 61.842C266.132 61.8479 266.128 61.8548 266.126 61.8597Z" fill="#FEC700"/>
<path d="M185.295 4.21885L184.874 18.5253L183.75 4.2564C183.717 3.83053 184.035 3.45803 184.461 3.42443C184.887 3.39084 185.259 3.709 185.293 4.13486C185.295 4.16352 185.296 4.19217 185.295 4.21885Z" fill="#FEC700"/>
<path d="M188.134 120.065L187.939 143.639L186.588 120.102C186.564 119.676 186.89 119.311 187.315 119.286C187.741 119.261 188.107 119.587 188.132 120.013C188.134 120.029 188.134 120.048 188.134 120.065Z" fill="#FEC700"/>
<path d="M185.76 23.1407L185.139 29.3389L184.215 23.1782C184.151 22.7533 184.444 22.3571 184.87 22.2929C185.295 22.2297 185.692 22.5221 185.755 22.948C185.765 23.0112 185.766 23.0784 185.76 23.1407Z" fill="#FEC700"/>
<path d="M187.623 99.2122L187.003 105.409L186.079 99.2498C186.016 98.8249 186.308 98.4277 186.734 98.3644C187.159 98.3012 187.555 98.5937 187.619 99.0195C187.628 99.0828 187.629 99.15 187.623 99.2122Z" fill="#FEC700"/>
<path d="M187.864 109.059L187.244 115.257L186.319 109.097C186.255 108.672 186.549 108.276 186.973 108.212C187.398 108.148 187.795 108.441 187.859 108.866C187.87 108.93 187.871 108.997 187.864 109.059Z" fill="#FEC700"/>
<path d="M186.015 33.566L186.775 96.1412L184.469 33.6035C184.453 33.1766 184.786 32.819 185.213 32.8032C185.64 32.7873 185.998 33.1203 186.014 33.5462C186.015 33.5521 186.015 33.561 186.015 33.566Z" fill="#FEC700"/>
<path d="M308.12 110.083L303.082 113.746L307.064 108.957C307.339 108.626 307.83 108.581 308.161 108.855C308.491 109.13 308.536 109.621 308.262 109.952C308.22 110.001 308.17 110.046 308.12 110.083Z" fill="#FEC700"/>
<path d="M300.513 117.21L228.232 184.97L299.448 116.092C299.755 115.795 300.243 115.803 300.539 116.11C300.836 116.418 300.828 116.907 300.521 117.202C300.521 117.202 300.515 117.208 300.513 117.21Z" fill="#FEC700"/>
<path d="M270.713 93.3449L266.711 98.1174L269.414 92.506C269.601 92.1187 270.066 91.9557 270.454 92.1424C270.841 92.3292 271.004 92.7946 270.817 93.1819C270.789 93.2412 270.751 93.2975 270.713 93.3449Z" fill="#FEC700"/>
<path d="M265.046 102.117L245.151 130.34L263.764 101.255C263.994 100.896 264.471 100.791 264.832 101.021C265.191 101.252 265.296 101.73 265.066 102.089C265.06 102.097 265.052 102.108 265.046 102.117Z" fill="#FEC700"/>
<path d="M215.967 56.3936L193.624 145.182L214.465 56.029C214.562 55.614 214.977 55.3551 215.392 55.4529C215.807 55.5498 216.066 55.9647 215.969 56.3807C215.969 56.3837 215.968 56.3906 215.967 56.3936Z" fill="#FEC700"/>
<path d="M242.072 60.7787L238.988 66.1904L240.645 60.1869C240.76 59.7728 241.189 59.5288 241.603 59.6434C242.017 59.758 242.26 60.1859 242.146 60.6009C242.128 60.6621 242.102 60.7244 242.072 60.7787Z" fill="#FEC700"/>
<path d="M238.075 70.3987L205.421 150.338L236.639 69.8276C236.794 69.4294 237.241 69.2318 237.639 69.3869C238.038 69.541 238.235 69.9886 238.08 70.3868C238.079 70.3898 238.076 70.3957 238.075 70.3987Z" fill="#FEC700"/>
<path d="M293.785 188.244L287.653 189.335L293.328 186.768C293.719 186.591 294.181 186.765 294.357 187.157C294.535 187.549 294.361 188.01 293.969 188.187C293.911 188.213 293.847 188.232 293.785 188.244Z" fill="#FEC700"/>
<path d="M283.81 191.333L250.438 200.207L283.38 189.849C283.787 189.722 284.221 189.948 284.348 190.355C284.477 190.762 284.25 191.196 283.844 191.323C283.833 191.327 283.82 191.33 283.81 191.333Z" fill="#FEC700"/>
<path d="M313.741 112.778C313.741 114.324 314.995 115.577 316.541 115.577C318.087 115.577 319.341 114.323 319.341 112.778C319.341 111.23 318.087 109.977 316.541 109.977C314.994 109.977 313.741 111.23 313.741 112.778Z" fill="#FEC700"/>
<path d="M214.99 48.1016C214.99 49.648 216.244 50.9018 217.79 50.9018C219.337 50.9018 220.59 49.648 220.59 48.1016C220.59 46.5553 219.337 45.3024 217.79 45.3024C216.244 45.3024 214.99 46.5553 214.99 48.1016Z" fill="#FEC700"/>
<path d="M317.121 99.2685C317.121 100.286 317.945 101.11 318.963 101.11C319.98 101.11 320.804 100.286 320.804 99.2685C320.804 98.2518 319.98 97.4277 318.963 97.4277C317.945 97.4277 317.121 98.2518 317.121 99.2685Z" fill="#FEC700"/>
<path d="M218.748 37.2257C218.748 38.2424 219.572 39.0665 220.589 39.0665C221.606 39.0665 222.43 38.2434 222.43 37.2257C222.43 36.209 221.606 35.3839 220.589 35.3839C219.572 35.3839 218.748 36.209 218.748 37.2257Z" fill="#FEC700"/>
<path d="M324.21 164.979C324.049 165.983 324.733 166.926 325.737 167.087C326.741 167.25 327.685 166.566 327.846 165.561C328.006 164.557 327.323 163.612 326.319 163.451C325.316 163.291 324.371 163.975 324.21 164.979Z" fill="#FEC700"/>
<path d="M274.581 109.52C274.581 110.538 275.406 111.362 276.423 111.362C277.44 111.362 278.264 110.538 278.264 109.52C278.264 108.503 277.439 107.679 276.423 107.679C275.406 107.679 274.581 108.503 274.581 109.52Z" fill="#FEC700"/>
<path d="M271.043 120.799L250.786 141.768L269.905 119.754C270.184 119.432 270.672 119.398 270.994 119.677C271.317 119.957 271.351 120.445 271.071 120.768C271.062 120.778 271.052 120.79 271.043 120.799Z" fill="#FEC700"/>
<path d="M278.76 337.692L284.095 337.315L286.811 332.706L288.816 337.664L294.039 338.822L289.945 342.263L290.457 347.587L285.919 344.757L281.015 346.889L282.304 341.698L278.76 337.692Z" fill="#FEC700"/>
<path d="M284.051 339.751L276.805 326.737L286.709 337.862L284.051 339.751Z" fill="#FEC700"/>
<path d="M358.874 290.81L346.783 283.15L359.629 289.462C360.014 289.65 360.172 290.114 359.982 290.497C359.794 290.88 359.33 291.039 358.947 290.85C358.921 290.839 358.897 290.825 358.874 290.81Z" fill="#FEC700"/>
<path d="M257.78 234.168L237.602 221.976L258.535 232.821C258.915 233.017 259.063 233.484 258.866 233.863C258.67 234.242 258.203 234.39 257.825 234.194C257.81 234.185 257.794 234.176 257.78 234.168Z" fill="#FEC700"/>
<path d="M342.362 281.559L337.348 277.863L343.117 280.21C343.515 280.372 343.707 280.827 343.546 281.225C343.384 281.623 342.929 281.815 342.531 281.653C342.47 281.629 342.412 281.595 342.362 281.559Z" fill="#FEC700"/>
<path d="M275.977 244.362L270.964 240.667L276.732 243.015C277.131 243.177 277.322 243.631 277.16 244.029C276.998 244.428 276.544 244.619 276.145 244.457C276.085 244.433 276.027 244.399 275.977 244.362Z" fill="#FEC700"/>
<path d="M267.384 239.547L262.371 235.852L268.14 238.2C268.538 238.362 268.729 238.816 268.567 239.214C268.405 239.613 267.952 239.804 267.554 239.642C267.492 239.618 267.434 239.584 267.384 239.547Z" fill="#FEC700"/>
<path d="M333.264 276.461L279.051 245.199L334.018 275.113C334.393 275.317 334.532 275.785 334.328 276.161C334.124 276.535 333.654 276.675 333.28 276.47C333.275 276.468 333.268 276.464 333.264 276.461Z" fill="#FEC700"/>
<path d="M282.813 382.01L276.98 368.94L284.188 381.306C284.403 381.675 284.277 382.149 283.909 382.363C283.539 382.578 283.066 382.454 282.851 382.084C282.837 382.061 282.824 382.035 282.813 382.01Z" fill="#FEC700"/>
<path d="M229.946 278.893L219.885 257.572L231.321 278.188C231.528 278.561 231.393 279.032 231.019 279.239C230.647 279.446 230.176 279.311 229.969 278.937C229.961 278.924 229.953 278.907 229.946 278.893Z" fill="#FEC700"/>
<path d="M274.177 365.168L272.045 359.316L275.552 364.464C275.794 364.819 275.702 365.304 275.347 365.546C274.992 365.788 274.507 365.696 274.265 365.341C274.23 365.287 274.199 365.227 274.177 365.168Z" fill="#FEC700"/>
<path d="M239.462 297.454L237.33 291.602L240.838 296.749C241.08 297.104 240.988 297.588 240.632 297.831C240.277 298.073 239.792 297.981 239.55 297.625C239.514 297.572 239.484 297.511 239.462 297.454Z" fill="#FEC700"/>
<path d="M234.969 288.688L232.838 282.836L236.344 287.983C236.586 288.338 236.494 288.823 236.139 289.065C235.784 289.307 235.299 289.215 235.057 288.86C235.021 288.806 234.991 288.746 234.969 288.688Z" fill="#FEC700"/>
<path d="M269.42 355.888L241.56 299.852L270.794 355.184C270.994 355.561 270.849 356.029 270.472 356.228C270.094 356.428 269.627 356.284 269.427 355.906C269.425 355.9 269.422 355.892 269.42 355.888Z" fill="#FEC700"/>
<path d="M311.732 308.086L307.75 303.297L312.789 306.96C313.137 307.212 313.214 307.7 312.961 308.046C312.708 308.394 312.221 308.471 311.873 308.218C311.821 308.18 311.772 308.133 311.732 308.086Z" fill="#FEC700"/>
<path d="M304.117 300.952L232.901 232.073L305.183 299.833C305.494 300.124 305.51 300.614 305.218 300.924C304.926 301.236 304.437 301.251 304.126 300.96C304.123 300.958 304.119 300.953 304.117 300.952Z" fill="#FEC700"/>
<path d="M274.084 324.536L271.38 318.923L275.382 323.697C275.658 324.026 275.615 324.518 275.286 324.794C274.956 325.069 274.465 325.027 274.189 324.697C274.148 324.648 274.111 324.592 274.084 324.536Z" fill="#FEC700"/>
<path d="M268.432 315.787L249.819 286.703L269.714 314.925C269.96 315.274 269.877 315.756 269.528 316.002C269.179 316.249 268.697 316.165 268.451 315.816C268.446 315.808 268.438 315.796 268.432 315.787Z" fill="#FEC700"/>
<path d="M211.907 343.257L198.293 271.861L213.422 342.95C213.51 343.367 213.244 343.778 212.827 343.867C212.41 343.956 212 343.69 211.911 343.273C211.91 343.269 211.908 343.261 211.907 343.257Z" fill="#FEC700"/>
<path d="M247.888 355.832L246.231 349.828L249.315 355.24C249.528 355.614 249.397 356.089 249.024 356.302C248.65 356.515 248.175 356.384 247.963 356.012C247.931 355.954 247.905 355.891 247.888 355.832Z" fill="#FEC700"/>
<path d="M243.884 346.19L212.665 265.68L245.319 345.619C245.48 346.015 245.292 346.465 244.896 346.627C244.501 346.788 244.051 346.599 243.888 346.204C243.887 346.2 243.885 346.193 243.884 346.19Z" fill="#FEC700"/>
<path d="M315.129 220.739L309.045 219.407L315.27 219.201C315.7 219.187 316.059 219.524 316.074 219.954C316.089 220.383 315.752 220.743 315.322 220.758C315.257 220.759 315.19 220.751 315.129 220.739Z" fill="#FEC700"/>
<path d="M304.733 219.789L242.497 212.54L304.895 218.251C305.319 218.291 305.632 218.666 305.593 219.091C305.555 219.516 305.178 219.829 304.753 219.79C304.747 219.791 304.738 219.79 304.733 219.789Z" fill="#FEC700"/>
<path d="M318.409 304.265C318.409 302.719 319.663 301.466 321.209 301.466C322.757 301.466 324.011 302.719 324.011 304.265C324.011 305.811 322.757 307.064 321.209 307.064C319.664 307.064 318.409 305.811 318.409 304.265Z" fill="#FEC700"/>
<path d="M222.459 343.104C222.459 341.557 223.713 340.304 225.259 340.304C226.806 340.304 228.059 341.557 228.059 343.104C228.059 344.65 226.806 345.904 225.259 345.904C223.713 345.905 222.459 344.65 222.459 343.104Z" fill="#FEC700"/>
<path d="M321.789 317.773C321.789 316.756 322.614 315.932 323.63 315.932C324.647 315.932 325.471 316.755 325.471 317.773C325.471 318.791 324.647 319.615 323.63 319.615C322.614 319.615 321.789 318.791 321.789 317.773Z" fill="#FEC700"/>
<path d="M230.997 352.681C230.997 351.664 231.821 350.84 232.838 350.84C233.855 350.84 234.679 351.664 234.679 352.681C234.679 353.698 233.855 354.523 232.838 354.523C231.821 354.523 230.997 353.699 230.997 352.681Z" fill="#FEC700"/>
<path d="M287.312 236.758C287.312 235.741 288.138 234.917 289.153 234.917C290.17 234.917 290.995 235.741 290.995 236.758C290.995 237.775 290.171 238.6 289.153 238.6C288.138 238.599 287.312 237.775 287.312 236.758Z" fill="#FEC700"/>
<path d="M279.251 307.522C279.251 306.505 280.076 305.681 281.092 305.681C282.11 305.681 282.934 306.505 282.934 307.522C282.934 308.539 282.11 309.363 281.092 309.363C280.076 309.363 279.251 308.539 279.251 307.522Z" fill="#FEC700"/>
<path d="M274.573 297.288L255.455 275.275L275.712 296.245C276.009 296.552 276 297.041 275.693 297.338C275.387 297.634 274.897 297.625 274.6 297.319C274.592 297.309 274.581 297.297 274.573 297.288Z" fill="#FEC700"/>
<path d="M99.4076 336.176L94.073 335.8L91.3567 331.191L89.3509 336.148L84.1289 337.306L88.2245 340.746L87.7107 346.072L92.249 343.24L97.1548 345.373L95.8634 340.183L99.4076 336.176Z" fill="#FEC700"/>
<path d="M91.459 336.346L101.365 325.22L94.1179 338.235L91.459 336.346Z" fill="#FEC700"/>
<path d="M14.4945 296.715L27.1183 289.97L15.2958 298.036C14.9431 298.277 14.4609 298.186 14.2208 297.834C13.9797 297.481 14.0706 296.999 14.4234 296.759C14.4471 296.743 14.4708 296.728 14.4945 296.715Z" fill="#FEC700"/>
<path d="M113.601 236.664L134.154 225.114L114.403 237.986C114.045 238.219 113.566 238.118 113.333 237.76C113.099 237.403 113.2 236.923 113.558 236.69C113.572 236.681 113.588 236.672 113.601 236.664Z" fill="#FEC700"/>
<path d="M30.6821 286.906L36.3685 284.364L31.4825 288.228C31.1455 288.494 30.6554 288.437 30.3886 288.1C30.1219 287.763 30.1792 287.273 30.5161 287.006C30.5675 286.967 30.6258 286.932 30.6821 286.906Z" fill="#FEC700"/>
<path d="M95.7612 247.472L101.448 244.931L96.5625 248.794C96.2246 249.061 95.7355 249.004 95.4687 248.667C95.2019 248.329 95.2593 247.84 95.5962 247.573C95.6476 247.532 95.7059 247.499 95.7612 247.472Z" fill="#FEC700"/>
<path d="M104.186 242.369L109.871 239.826L104.987 243.69C104.65 243.956 104.16 243.899 103.894 243.562C103.627 243.225 103.684 242.735 104.021 242.468C104.072 242.428 104.13 242.394 104.186 242.369Z" fill="#FEC700"/>
<path d="M39.6032 281.504L93.5199 249.736L40.4036 282.825C40.0409 283.05 39.5647 282.94 39.3394 282.578C39.1141 282.215 39.2248 281.739 39.5864 281.514C39.5913 281.511 39.5983 281.506 39.6032 281.504Z" fill="#FEC700"/>
<path d="M93.9798 379.79L101.188 367.424L95.3552 380.495C95.1813 380.885 94.7238 381.06 94.3335 380.886C93.9432 380.712 93.7684 380.255 93.9423 379.864C93.9531 379.839 93.966 379.813 93.9798 379.79Z" fill="#FEC700"/>
<path d="M146.847 276.672L158.283 256.057L148.222 277.376C148.039 277.763 147.579 277.928 147.193 277.746C146.807 277.563 146.641 277.103 146.823 276.716C146.83 276.702 146.839 276.686 146.847 276.672Z" fill="#FEC700"/>
<path d="M102.614 362.948L106.121 357.799L103.989 363.653C103.841 364.057 103.395 364.265 102.991 364.118C102.587 363.971 102.379 363.524 102.525 363.12C102.549 363.059 102.581 363 102.614 362.948Z" fill="#FEC700"/>
<path d="M137.331 295.233L140.838 290.085L138.705 295.938C138.558 296.342 138.112 296.55 137.708 296.403C137.303 296.256 137.096 295.809 137.242 295.405C137.265 295.345 137.297 295.284 137.331 295.233Z" fill="#FEC700"/>
<path d="M141.824 286.468L145.33 281.32L143.199 287.171C143.051 287.575 142.605 287.784 142.201 287.637C141.797 287.489 141.589 287.043 141.735 286.639C141.758 286.578 141.79 286.519 141.824 286.468Z" fill="#FEC700"/>
<path d="M107.374 353.666L136.608 298.335L108.748 354.371C108.559 354.752 108.094 354.908 107.713 354.719C107.331 354.529 107.175 354.065 107.365 353.683C107.368 353.679 107.372 353.671 107.374 353.666Z" fill="#FEC700"/>
<path d="M188.204 411.307L188.626 397.001L189.749 411.27C189.782 411.695 189.464 412.068 189.038 412.101C188.613 412.135 188.24 411.817 188.206 411.391C188.204 411.363 188.204 411.335 188.204 411.307Z" fill="#FEC700"/>
<path d="M185.365 295.462L185.56 271.888L186.91 295.425C186.933 295.851 186.608 296.216 186.182 296.241C185.756 296.266 185.391 295.94 185.366 295.514C185.366 295.497 185.365 295.479 185.365 295.462Z" fill="#FEC700"/>
<path d="M187.741 392.387L188.36 386.188L189.285 392.349C189.35 392.775 189.057 393.171 188.631 393.235C188.206 393.298 187.81 393.006 187.746 392.581C187.736 392.516 187.735 392.448 187.741 392.387Z" fill="#FEC700"/>
<path d="M185.877 316.315L186.498 310.118L187.422 316.277C187.485 316.702 187.193 317.099 186.767 317.163C186.342 317.226 185.946 316.933 185.882 316.507C185.872 316.444 185.871 316.376 185.877 316.315Z" fill="#FEC700"/>
<path d="M185.636 306.468L186.256 300.27L187.181 306.429C187.245 306.854 186.951 307.251 186.526 307.314C186.102 307.378 185.705 307.085 185.641 306.66C185.63 306.597 185.629 306.529 185.636 306.468Z" fill="#FEC700"/>
<path d="M187.485 381.96L186.724 319.385L189.03 381.923C189.046 382.349 188.713 382.707 188.287 382.723C187.86 382.739 187.502 382.406 187.485 381.979C187.485 381.974 187.485 381.966 187.485 381.96Z" fill="#FEC700"/>
<path d="M65.3789 305.443L70.4171 301.781L66.4362 306.57C66.1615 306.901 65.6704 306.946 65.3394 306.671C65.0084 306.396 64.9639 305.905 65.2386 305.574C65.2791 305.525 65.3295 305.48 65.3789 305.443Z" fill="#FEC700"/>
<path d="M72.985 298.317L145.265 230.557L74.0502 299.436C73.7429 299.733 73.2548 299.725 72.9583 299.418C72.6619 299.11 72.6698 298.621 72.9771 298.326C72.9781 298.324 72.983 298.319 72.985 298.317Z" fill="#FEC700"/>
<path d="M102.787 322.181L106.788 317.409L104.085 323.02C103.899 323.407 103.433 323.57 103.045 323.384C102.658 323.197 102.495 322.731 102.682 322.344C102.71 322.286 102.747 322.229 102.787 322.181Z" fill="#FEC700"/>
<path d="M108.452 313.41L128.347 285.186L109.735 314.27C109.506 314.63 109.028 314.735 108.668 314.505C108.308 314.274 108.203 313.797 108.434 313.436C108.44 313.43 108.447 313.419 108.452 313.41Z" fill="#FEC700"/>
<path d="M157.532 359.133L179.874 270.345L159.033 359.498C158.936 359.913 158.521 360.172 158.106 360.074C157.691 359.977 157.432 359.561 157.529 359.146C157.53 359.143 157.531 359.136 157.532 359.133Z" fill="#FEC700"/>
<path d="M131.428 354.748L134.511 349.337L132.855 355.34C132.741 355.754 132.312 355.998 131.898 355.884C131.484 355.769 131.24 355.341 131.354 354.926C131.37 354.864 131.397 354.803 131.428 354.748Z" fill="#FEC700"/>
<path d="M135.424 345.127L168.078 265.188L136.859 345.698C136.705 346.097 136.258 346.294 135.859 346.139C135.461 345.985 135.265 345.537 135.419 345.139C135.42 345.137 135.423 345.13 135.424 345.127Z" fill="#FEC700"/>
<path d="M70.3245 234.145L76.4753 233.16L70.7573 235.629C70.363 235.8 69.9046 235.618 69.7336 235.223C69.5637 234.828 69.7455 234.37 70.1397 234.199C70.199 234.173 70.2642 234.156 70.3245 234.145Z" fill="#FEC700"/>
<path d="M80.3419 231.231L123.961 219.495L80.7688 232.716C80.3607 232.841 79.9289 232.611 79.8034 232.203C79.6789 231.795 79.9082 231.363 80.3162 231.238C80.3231 231.237 80.334 231.233 80.3419 231.231Z" fill="#FEC700"/>
<path d="M59.7577 302.749C59.7577 301.203 58.5028 299.949 56.9575 299.949C55.4101 299.949 54.1572 301.203 54.1572 302.749C54.1572 304.295 55.4101 305.549 56.9575 305.549C58.5028 305.55 59.7577 304.296 59.7577 302.749Z" fill="#FEC700"/>
<path d="M158.509 367.424C158.509 365.878 157.254 364.624 155.708 364.624C154.162 364.624 152.908 365.877 152.908 367.424C152.908 368.971 154.162 370.225 155.708 370.225C157.255 370.225 158.509 368.971 158.509 367.424Z" fill="#FEC700"/>
<path d="M56.3789 316.258C56.3789 315.241 55.5538 314.417 54.5371 314.417C53.5203 314.417 52.6963 315.241 52.6963 316.258C52.6963 317.275 53.5203 318.099 54.5371 318.099C55.5538 318.099 56.3789 317.274 56.3789 316.258Z" fill="#FEC700"/>
<path d="M154.75 378.301C154.75 377.285 153.926 376.46 152.908 376.46C151.891 376.46 151.067 377.285 151.067 378.301C151.067 379.318 151.891 380.143 152.908 380.143C153.926 380.142 154.75 379.318 154.75 378.301Z" fill="#FEC700"/>
<path d="M61.5986 238.599C61.5986 237.582 60.7745 236.757 59.7578 236.757C58.7401 236.757 57.916 237.582 57.916 238.599C57.916 239.616 58.7401 240.441 59.7578 240.441C60.7745 240.441 61.5986 239.616 61.5986 238.599Z" fill="#FEC700"/>
<path d="M98.9179 306.007C98.9179 304.989 98.0929 304.165 97.0762 304.165C96.0594 304.165 95.2344 304.989 95.2344 306.007C95.2344 307.024 96.0584 307.848 97.0762 307.848C98.0939 307.848 98.9179 307.023 98.9179 306.007Z" fill="#FEC700"/>
<path d="M102.456 294.727L122.713 273.758L103.594 295.772C103.315 296.094 102.827 296.128 102.504 295.849C102.182 295.569 102.148 295.081 102.427 294.758C102.436 294.748 102.447 294.737 102.456 294.727Z" fill="#FEC700"/>
</svg>
