<svg width="30" height="30" viewBox="0 0 30 30" fill="none" xmlns="http://www.w3.org/2000/svg">
<path d="M10.4664 6.45906C11.17 6.08094 11.8963 5.79531 12.6455 5.60219C13.3949 5.40906 14.1589 5.3125 14.9377 5.3125C17.6412 5.3125 19.9421 6.25323 21.8402 8.13469C23.7385 10.0161 24.6877 12.3046 24.6877 15L24.6877 15.9759L27.0002 13.6634L28.3174 14.9806L23.7502 19.5481L19.183 14.9806L20.5002 13.6634L22.8127 15.9759L22.8127 15C22.8127 12.8285 22.0483 10.9835 20.5196 9.465C18.9906 7.94667 17.13 7.1875 14.9377 7.1875C14.42 7.1875 13.9028 7.24396 13.3861 7.35687C12.8693 7.47 12.3648 7.63948 11.8727 7.86531L10.4664 6.45906ZM1.68301 15.0194L6.2502 10.4519L10.8174 15.0194L9.5002 16.3366L7.1877 14.0241L7.1877 15C7.1877 17.1715 7.95207 19.0165 9.48082 20.535C11.0098 22.0533 12.8704 22.8125 15.0627 22.8125C15.5804 22.8125 16.0976 22.756 16.6143 22.6431C17.1311 22.53 17.6356 22.3605 18.1277 22.1347L19.5339 23.5409C18.8304 23.9191 18.104 24.2047 17.3549 24.3978C16.6055 24.5909 15.8414 24.6875 15.0627 24.6875C12.3592 24.6875 10.0583 23.7468 8.1602 21.8653C6.26186 19.9839 5.3127 17.6954 5.3127 15L5.3127 14.0241L3.0002 16.3366L1.68301 15.0194Z" fill="white"/>
<path d="M15.1783 19.1612L12.4073 16.1698V15.2529H13.906C14.2399 15.2529 14.5294 15.1464 14.7745 14.9334C15.0197 14.7203 15.1702 14.4534 15.2261 14.1327H12V13.1809H15.1185C15.0096 12.9518 14.8447 12.7664 14.6237 12.6245C14.4028 12.4826 14.1579 12.4116 13.889 12.4116H12V11.4597H17V12.4116H15.703C15.7883 12.5152 15.8675 12.6333 15.9405 12.7661C16.0136 12.8989 16.0697 13.0371 16.1088 13.1809H17V14.1327H16.1703C16.1111 14.7189 15.8726 15.2082 15.455 15.6008C15.0373 15.9935 14.5381 16.1932 13.9572 16.1998H13.7179L16.4645 19.1612H15.1783Z" fill="white"/>
</svg>
