<svg width="104" height="103" viewBox="0 0 104 103" fill="none" xmlns="http://www.w3.org/2000/svg">
<path d="M93.3994 97.9863H98.3857V93V51.75C98.3857 26.2144 77.685 5.51374 52.1494 5.51374C26.6138 5.51374 5.91315 26.2144 5.91315 51.75C5.91315 77.2856 26.6138 97.9863 52.1494 97.9863H93.3994Z" fill="#FB641B"/>
<path d="M93.3994 97.9863H98.3857V93V51.75C98.3857 26.2144 77.685 5.51374 52.1494 5.51374C26.6138 5.51374 5.91315 26.2144 5.91315 51.75C5.91315 77.2856 26.6138 97.9863 52.1494 97.9863H93.3994Z" stroke="white" stroke-width="9.97253"/>
<path d="M30.3303 40.2747L72.5961 36.5048C74.1554 36.3658 75.4235 37.7416 75.1577 39.2844L71.1636 62.4773C70.9629 63.6428 69.9381 64.485 68.7559 64.4563L33.8039 63.6066C32.671 63.579 31.7141 62.7579 31.5147 61.6424L28.1949 43.0692C27.9488 41.6914 28.9364 40.399 30.3303 40.2747Z" fill="white"/>
<path d="M31.998 62.7066C32.4265 63.2446 33.079 63.5892 33.8049 63.6069L68.7569 64.4566C69.9393 64.4854 70.9639 63.643 71.1646 62.4777L75.0664 39.8203L31.998 62.7066Z" fill="#EBEBEB"/>
<path d="M33.8047 63.6064L46.4852 68.4161C47.1407 68.6647 47.8049 68.0732 47.6338 67.3934L46.7595 63.9214L33.8047 63.6064Z" fill="white"/>
<path d="M58.9482 66.1685L68.6515 66.4484L70.1135 69.7836L58.9482 66.1685Z" fill="white"/>
<path d="M58.1514 68.5767L61.8732 71.832L60.0122 75.0879L58.1514 68.5767Z" fill="white"/>
<path d="M41.4043 37.5995L57.2218 34.8015L53.5001 31.8867L41.4043 37.5995Z" fill="#F2D23B"/>
<path d="M39.6758 36.6736L45.1254 32.6805L43.7962 28.5654L39.6758 36.6736Z" fill="white"/>
<path d="M72.4805 34.4929L75.1924 30.8618L77.066 33.2212L72.4805 34.4929Z" fill="#F2D23B"/>
<path d="M73.2109 35.0376L80.753 33.9292L79.5911 35.7225L73.2109 35.0376Z" fill="white"/>
<path d="M29.2897 65.6953L27.4775 66.6325L28.6548 68.9092C28.9805 69.5389 29.7548 69.7853 30.3845 69.4596C30.7558 69.2677 30.901 68.8112 30.709 68.4399L29.2897 65.6953Z" fill="#9099D5"/>
<path d="M28.904 66.2796L28.1528 66.6682C27.701 66.9018 27.1453 66.7251 26.9116 66.2733L26.7671 65.994C26.7151 65.8934 26.7544 65.7696 26.8552 65.7175L28.878 64.6714C28.9786 64.6194 29.1024 64.6587 29.1545 64.7595L29.299 65.0388C29.5327 65.4903 29.3558 66.0459 28.904 66.2796Z" fill="#222C72"/>
<path d="M24.364 63.1707L25.7022 65.7581C25.835 66.0148 26.1352 66.135 26.4093 66.0431C29.4085 65.0367 32.3735 64.5874 35.3048 64.6891L30.7862 55.9521C29.1751 58.4031 27.0949 60.563 24.5401 62.429C24.3067 62.5994 24.2313 62.9139 24.364 63.1707Z" fill="white"/>
<path d="M25.3887 65.1526L25.7016 65.7578C25.8345 66.0146 26.1346 66.1348 26.4088 66.0428C29.4079 65.0365 32.3729 64.5871 35.3043 64.6889L34.5651 63.2598C31.5906 63.4071 28.5588 64.0285 25.4688 65.1294C25.4421 65.139 25.4155 65.1464 25.3887 65.1526Z" fill="#9099D5"/>
<path d="M24.5564 63.5376L24.2207 63.7111C23.6742 63.9938 23.4602 64.6661 23.7429 65.2126C24.0256 65.7592 24.6979 65.9731 25.2444 65.6904L25.5801 65.5168L24.5564 63.5376Z" fill="#2D3DA3"/>
<path d="M23.9521 65.496C24.2864 65.8238 24.8052 65.9171 25.2437 65.6904L25.5793 65.5167L25.2275 64.8364L23.9521 65.496Z" fill="#222C72"/>
<path d="M35.3049 64.6868C36.027 64.3133 35.6009 62.0547 34.353 59.6422C33.1052 57.2296 31.5082 55.5767 30.7861 55.9502C30.0639 56.3237 30.4901 58.5822 31.7379 60.9948C32.9858 63.4073 34.5827 65.0603 35.3049 64.6868Z" fill="#1B2252"/>
<path d="M33.7307 60.552L33.2524 59.627C33.2049 59.5352 33.0976 59.4923 32.9996 59.5251C32.4085 59.7235 31.821 59.861 31.2373 59.9386C31.3852 60.2842 31.5521 60.6387 31.7373 60.9968C31.9224 61.3548 32.1152 61.6959 32.3118 62.0163C32.7125 61.5848 33.1642 61.1849 33.6678 60.817C33.7512 60.7562 33.7781 60.6437 33.7307 60.552Z" fill="white"/>
<path d="M33.1463 60.6715C32.4756 60.8578 31.9031 60.4449 31.581 59.8853C31.4662 59.9051 31.3516 59.9233 31.2373 59.9385C31.3852 60.2841 31.5521 60.6386 31.7373 60.9966C31.9224 61.3547 32.1152 61.6957 32.3118 62.0162C32.7125 61.5846 33.1642 61.1848 33.6678 60.8169C33.7512 60.7559 33.7782 60.6435 33.7307 60.5517L33.6603 60.4154C33.5045 60.5289 33.335 60.6192 33.1463 60.6715Z" fill="#A43F0F"/>
<path d="M34.6592 64.6292C34.3436 64.4766 33.9772 64.1736 33.5912 63.7523C32.9804 63.0859 32.3209 62.1243 31.7377 60.9965C31.1545 59.8688 30.7509 58.7747 30.56 57.8911C30.4395 57.3328 30.4039 56.8585 30.4618 56.5127C30.5082 56.2351 30.6148 56.0402 30.7861 55.9517L29.8164 56.4532C29.0942 56.8266 29.5203 59.0852 30.7681 61.4978C32.0159 63.9106 33.6128 65.5636 34.335 65.1902L35.3047 64.6887C35.1331 64.7775 34.9126 64.7518 34.6592 64.6292Z" fill="#2D3DA3"/>
<path d="M34.6597 64.6295C34.3442 64.4768 33.9777 64.1738 33.5917 63.7526C33.4174 63.5624 33.2391 63.3476 33.0599 63.1123C32.7244 63.2628 32.3886 63.4128 32.0566 63.5702C32.9638 64.7727 33.8485 65.4424 34.3354 65.1906L35.3051 64.6891C35.1336 64.7778 34.9131 64.7521 34.6597 64.6295Z" fill="#222C72"/>
<path d="M34.7773 59.0669L37.8286 56.7695L38.0831 58.2954L34.7773 59.0669Z" fill="white"/>
<path d="M34.1719 56.9059L35.7923 53.4473L36.7317 54.6762L34.1719 56.9059Z" fill="white"/>
<path d="M36.2363 60.9814L39.9301 60.0098L39.5884 61.5184L36.2363 60.9814Z" fill="white"/>
<path d="M77.5088 38.9275C78.1769 38.9275 78.1769 37.8916 77.5088 37.8916C76.8408 37.8916 76.8408 38.9275 77.5088 38.9275Z" fill="white"/>
<path d="M67.7569 34.447C68.4249 34.447 68.4249 33.4111 67.7569 33.4111C67.0889 33.4111 67.0889 34.447 67.7569 34.447Z" fill="white"/>
<path d="M36.3926 37.3464C37.0606 37.3464 37.0606 36.3105 36.3926 36.3105C35.7246 36.3105 35.7246 37.3464 36.3926 37.3464Z" fill="white"/>
<path d="M52.7334 67.1287C53.4015 67.1287 53.4015 66.0928 52.7334 66.0928C52.0654 66.0928 52.0654 67.1287 52.7334 67.1287Z" fill="white"/>
<path d="M38.3702 69.1057C39.0382 69.1057 39.0382 68.0698 38.3702 68.0698C37.7021 68.0698 37.7021 69.1057 38.3702 69.1057Z" fill="white"/>
<path d="M27.4317 56.1912C28.0997 56.1912 28.0997 55.1553 27.4317 55.1553C26.7637 55.1553 26.7637 56.1912 27.4317 56.1912Z" fill="white"/>
<path d="M77.377 49.075C78.045 49.075 78.045 48.0391 77.377 48.0391C76.709 48.0391 76.709 49.075 77.377 49.075Z" fill="white"/>
<path d="M75.3995 64.2302C76.0675 64.2302 76.0675 63.1943 75.3995 63.1943C74.7314 63.1943 74.7314 64.2302 75.3995 64.2302Z" fill="white"/>
<path d="M70.6573 45.6482C71.3253 45.6482 71.3253 44.6123 70.6573 44.6123C69.9892 44.6123 69.9892 45.6482 70.6573 45.6482Z" fill="white"/>
<path d="M31.6485 43.1448C32.3165 43.1448 32.3165 42.1089 31.6485 42.1089C30.9805 42.1089 30.9805 43.1448 31.6485 43.1448Z" fill="white"/>
<path d="M62.7497 36.2295C63.1672 36.2295 63.1672 35.582 62.7497 35.582C62.3321 35.582 62.3321 36.2295 62.7497 36.2295Z" fill="white"/>
<path d="M77.6403 43.6093C78.0578 43.6093 78.0578 42.9619 77.6403 42.9619C77.2227 42.9619 77.2227 43.6093 77.6403 43.6093Z" fill="white"/>
<path d="M32.0445 39.1289C32.462 39.1289 32.462 38.4814 32.0445 38.4814C31.6271 38.4814 31.6271 39.1289 32.0445 39.1289Z" fill="white"/>
<path d="M27.4323 49.6709C27.8498 49.6709 27.8498 49.0234 27.4323 49.0234C27.0148 49.0234 27.0147 49.6709 27.4323 49.6709Z" fill="white"/>
<path d="M68.5495 62.5859C68.967 62.5859 68.967 61.9385 68.5495 61.9385C68.1319 61.9385 68.1319 62.5859 68.5495 62.5859Z" fill="white"/>
<path d="M72.8972 39.5239C73.3146 39.5239 73.3146 38.8765 72.8972 38.8765C72.4796 38.8765 72.4796 39.5239 72.8972 39.5239Z" fill="white"/>
<path d="M73.1608 67.4619C73.5782 67.4619 73.5782 66.8145 73.1608 66.8145C72.7433 66.8145 72.7433 67.4619 73.1608 67.4619Z" fill="white"/>
<path d="M53.6568 69.5703C54.0743 69.5703 54.0743 68.9229 53.6568 68.9229C53.2394 68.9229 53.2394 69.5703 53.6568 69.5703Z" fill="white"/>
<path d="M56.4235 65.3535C56.841 65.3535 56.841 64.7061 56.4235 64.7061C56.006 64.7061 56.006 65.3535 56.4235 65.3535Z" fill="white"/>
<path d="M42.3238 71.2837C42.7413 71.2837 42.7413 70.6362 42.3238 70.6362C41.9064 70.6362 41.9064 71.2837 42.3238 71.2837Z" fill="white"/>
<path d="M34.6804 67.0669C35.0978 67.0669 35.0978 66.4194 34.6804 66.4194C34.2628 66.4194 34.2628 67.0669 34.6804 67.0669Z" fill="white"/>
<path d="M25.8502 59.4233C26.2677 59.4233 26.2677 58.7759 25.8502 58.7759C25.4327 58.7759 25.4327 59.4233 25.8502 59.4233Z" fill="white"/>
<path d="M26.2467 43.3462C26.6642 43.3462 26.6642 42.6987 26.2467 42.6987C25.8292 42.6987 25.8292 43.3462 26.2467 43.3462Z" fill="white"/>
<path d="M34.0211 46.9043C34.4386 46.9043 34.4386 46.2568 34.0211 46.2568C33.6036 46.2568 33.6036 46.9043 34.0211 46.9043Z" fill="white"/>
<path d="M40.887 49.9596C40.887 49.9596 40.963 49.9272 41.1151 49.8624C41.2626 49.7868 41.4534 49.7376 41.6876 49.7149C41.9172 49.6814 42.1504 49.7168 42.3874 49.8212C42.6306 49.9102 42.8426 50.1216 43.0232 50.4554C43.1605 50.7177 43.3543 51.0523 43.6046 51.4592C43.8502 51.8551 44.1104 52.2705 44.3854 52.7053C44.6604 53.1401 44.9183 53.55 45.1593 53.9351C45.4065 54.3047 45.6074 54.6107 45.7618 54.8529C45.9272 55.0905 46.0099 55.2094 46.0099 55.2094L45.6004 52.3035C45.6004 52.3035 45.5952 52.2159 45.5848 52.0406C45.5697 51.8545 45.6004 51.6554 45.6769 51.4431C45.7642 51.2263 45.9546 51.0554 46.2479 50.9305C46.5413 50.8056 46.7894 50.7705 46.9924 50.8253C47.1908 50.8691 47.3572 50.9587 47.4918 51.0939C47.6373 51.2245 47.7641 51.3566 47.8723 51.4902C47.9512 51.585 48.0787 51.7488 48.2549 51.9818C48.4373 52.1993 48.6213 52.4354 48.8068 52.6902C49.0031 52.9403 49.17 53.1515 49.3076 53.324C49.4452 53.4964 49.514 53.5826 49.514 53.5826L49.0848 52.1675L47.7292 47.0848C47.7292 47.0848 47.7318 47.0003 47.7368 46.8313C47.7481 46.6468 47.8269 46.44 47.9732 46.2109C48.1303 45.9771 48.4277 45.7864 48.8653 45.6385C49.5248 45.4091 49.9715 45.3729 50.2052 45.5301C50.4498 45.6826 50.5849 45.9395 50.6104 46.3009C50.6208 46.4761 50.6804 46.8422 50.7892 47.3991C50.8934 47.9451 51.0251 48.6013 51.1846 49.3676C51.344 50.1339 51.5251 50.936 51.7278 51.7737C51.9258 52.6006 52.124 53.3826 52.3223 54.1195C52.4315 54.4966 52.4517 54.8153 52.3828 55.0756C52.3202 55.3204 52.2236 55.5156 52.093 55.661C51.9624 55.8064 51.8397 55.91 51.7248 55.9718C51.6099 56.0335 51.5525 56.0644 51.5525 56.0644C51.5525 56.0644 51.4819 56.0945 51.3406 56.1546C51.204 56.2256 51.0209 56.2779 50.7914 56.3115C50.5727 56.3404 50.3286 56.3096 50.059 56.219C49.8003 56.1238 49.5379 55.9147 49.272 55.5915C48.751 54.9406 48.3081 54.3977 47.9432 53.9627C47.5783 53.5276 47.3959 53.3101 47.3959 53.3101L47.6628 56.4692C47.6628 56.4692 47.658 56.5483 47.6483 56.7064C47.6386 56.8645 47.5638 57.0504 47.4237 57.264C47.2945 57.4731 47.0452 57.6562 46.6758 57.8135C46.1217 58.0494 45.699 58.1267 45.4077 58.0454C45.1227 57.9486 44.8348 57.7246 44.5441 57.3735C44.4514 57.2461 44.2798 57.024 44.0294 56.7071C43.7743 56.3794 43.483 55.9965 43.1553 55.5584C42.8276 55.1204 42.4899 54.6738 42.1421 54.2187C41.7897 53.7527 41.4666 53.3256 41.173 52.9372C40.8746 52.5381 40.6296 52.2188 40.4379 51.9796C40.2525 51.7249 40.1598 51.5975 40.1598 51.5975C40.1598 51.5975 40.1281 51.5533 40.0647 51.4647C40.0014 51.3762 39.9636 51.2575 39.9516 51.1086C39.9349 50.9489 39.9881 50.7722 40.111 50.5787C40.2448 50.3806 40.5035 50.1742 40.887 49.9596ZM55.6551 46.1743C56.0432 45.9706 56.3714 45.8822 56.6395 45.9092C56.9077 45.9362 57.0682 45.9513 57.1209 45.9545C57.2526 45.9626 57.3759 45.9807 57.4905 46.0089C57.6161 46.0325 57.6788 46.0442 57.6788 46.0442C57.6788 46.0442 57.7719 46.0367 57.958 46.0216C58.1441 46.0066 58.3897 46.056 58.6949 46.1699C58.9955 46.273 59.3283 46.497 59.6934 46.8421C60.0585 47.1872 60.4123 47.7167 60.7549 48.4308C60.9847 48.9105 61.0845 49.3557 61.054 49.7665C61.019 50.1665 60.901 50.5375 60.7002 50.8797C60.5056 51.2064 60.2654 51.5012 59.9795 51.7641C59.6998 52.0116 59.4171 52.2218 59.1314 52.3947C58.8565 52.5631 58.6237 52.6943 58.4327 52.7885C58.2526 52.878 58.1626 52.9227 58.1626 52.9227C58.1626 52.9227 58.054 52.969 57.8367 53.0615C57.6302 53.1494 57.3556 53.2278 57.0128 53.2968C56.6653 53.3549 56.2901 53.3478 55.8872 53.2755C55.4904 53.1877 55.101 52.9814 54.7188 52.6564C54.3474 52.3268 54.0269 51.8152 53.7572 51.1214C53.4875 50.4277 53.3742 49.815 53.4173 49.2833C53.4667 48.7361 53.6011 48.2681 53.8207 47.8795C54.0511 47.4862 54.3061 47.1658 54.5858 46.9184C54.8764 46.6663 55.1256 46.4832 55.3337 46.369C55.548 46.2392 55.6551 46.1743 55.6551 46.1743ZM56.4003 47.7437C56.4003 47.7437 56.3667 47.8607 56.2995 48.0946C56.2431 48.324 56.2114 48.6263 56.2043 49.0015C56.2081 49.3721 56.3001 49.7692 56.4805 50.1929C56.6563 50.6058 56.844 50.9109 57.0435 51.1083C57.2431 51.3057 57.4203 51.4356 57.5752 51.498C57.7364 51.5449 57.8495 51.5544 57.9147 51.5267C57.9799 51.4989 58.0716 51.4278 58.1897 51.3133C58.314 51.1834 58.3897 50.9843 58.4167 50.7162C58.4437 50.448 58.3523 50.0826 58.1425 49.6201C57.9651 49.2336 57.7875 48.937 57.6097 48.7304C57.4427 48.5191 57.2602 48.3466 57.062 48.2127C56.8701 48.0634 56.6495 47.9071 56.4003 47.7437ZM64.4347 50.2522C64.4347 50.2522 64.3641 50.2823 64.2229 50.3424C64.0816 50.4026 63.9094 50.4502 63.7062 50.4854C63.5139 50.516 63.3193 50.4961 63.1226 50.4259C62.9258 50.3556 62.7634 50.2002 62.6353 49.9596C62.5365 49.7578 62.3899 49.4737 62.1954 49.1073C62.0009 48.7409 61.7871 48.3442 61.554 47.9173C61.3271 47.4749 61.1118 47.0596 60.908 46.6715C60.6997 46.2725 60.5291 45.9473 60.3963 45.6958C60.2636 45.4443 60.1972 45.3185 60.1972 45.3185C60.1972 45.3185 60.1841 45.2727 60.158 45.1812C60.1272 45.0788 60.119 44.954 60.1333 44.8067C60.1585 44.6548 60.2372 44.493 60.3694 44.3212C60.5124 44.1447 60.7446 43.9817 61.0659 43.8321C61.3872 43.6824 61.6564 43.6063 61.8735 43.6037C62.0906 43.6011 62.2603 43.638 62.3826 43.7142C62.5112 43.775 62.5994 43.8465 62.6472 43.9288C62.7013 43.9956 62.7284 44.029 62.7284 44.029C62.7284 44.029 62.8054 43.9385 62.9593 43.7575C63.1195 43.5609 63.334 43.3413 63.6028 43.0985C63.8824 42.851 64.1969 42.6401 64.5462 42.4658C64.6005 42.4426 64.7037 42.3987 64.8558 42.3339C65.0188 42.2645 65.2088 42.2286 65.4259 42.226C65.6492 42.2079 65.8949 42.2573 66.1628 42.3742C66.4417 42.4865 66.7272 42.7051 67.0195 43.0298C67.3072 43.3437 67.5914 43.8002 67.8722 44.3994C68.2286 45.146 68.5163 45.7615 68.7353 46.2458C68.9652 46.7254 69.1108 47.1126 69.1721 47.4074C69.2397 47.6866 69.2097 47.9176 69.0821 48.1002C68.9608 48.2674 68.7208 48.4273 68.3623 48.58C68.0146 48.728 67.7385 48.7878 67.5339 48.7594C67.3293 48.731 67.1775 48.6609 67.0785 48.549C66.9749 48.4263 66.9 48.3106 66.8538 48.202C66.826 48.1368 66.7629 47.9583 66.6643 47.6666C66.5611 47.364 66.4364 47.0257 66.2899 46.6516C66.1389 46.2668 65.9762 45.8997 65.8018 45.5504C65.6337 45.1856 65.463 44.9054 65.2898 44.7096C65.1228 44.4983 64.9656 44.4305 64.8181 44.5061C64.6381 44.5956 64.4943 44.7403 64.3868 44.94C64.2856 45.1243 64.21 45.3234 64.1598 45.5372C64.1051 45.7402 64.0706 45.9153 64.0563 46.0626C64.0373 46.199 64.0279 46.2672 64.0279 46.2672L65.2386 48.6586C65.2386 48.6586 65.2617 48.713 65.308 48.8216C65.3542 48.9302 65.3748 49.0691 65.3698 49.2381C65.3601 49.3962 65.2861 49.5689 65.1476 49.7562C65.02 49.9388 64.7824 50.1042 64.4347 50.2522Z" fill="#FB641B"/>
</svg>
